<svg xmlns="http://www.w3.org/2000/svg" width="27" height="27" viewBox="0 0 27 27">
    <path fill="#FADA90" d="M16.253 5.408c1.25-.294 2.554-.164 3.811.224.464.143.818.288 1.082.421 3.653 2.192 4.533 6.352 2.657 9.925-.585 1.113-1.512 2.176-2.69 3.114-.229.181-.462.354-.7.517l-.136.089.665.602c.31.275.338.75.063 1.059-.275.31-.75.338-1.059.063l-.546-.492-.482-.446-.362.174c-3.208 1.456-6.904 1.456-10.11 0l-.364-.174-.48.446-.547.492c-.31.275-.784.247-1.059-.063-.275-.31-.247-.784.063-1.059l.664-.602-.135-.089c-.119-.081-.236-.165-.353-.252l-.346-.265c-1.177-.935-2.104-1.998-2.692-3.115-1.876-3.572-.996-7.733 2.713-9.953l.256-.116c.202-.084.462-.18.771-.276 1.258-.389 2.564-.518 3.814-.224.914.216 1.74.652 2.441 1.33l.257.266.051.06.052-.06c.67-.74 1.47-1.235 2.362-1.505l.34-.091zm-2.755 8.81l-.06.098c-.214.326-.469.694-.769 1.102-.835 1.133-1.855 2.334-3.079 3.59l-.354.357.1.045c2.659 1.12 5.67 1.12 8.328 0l.1-.045-.353-.357c-1.07-1.099-1.986-2.155-2.757-3.162l-.322-.428c-.207-.28-.392-.542-.556-.782l-.277-.417zm-3.091-7.35c-.951-.224-2.003-.12-3.027.197-.382.118-.664.234-.753.275C3.694 9.098 3 12.377 4.525 15.28c.484.918 1.274 1.825 2.297 2.638.224.177.452.345.686.502l.332.216.369-.363c1.149-1.154 2.117-2.259 2.919-3.302l.333-.443c.449-.608.804-1.148 1.077-1.612l.11-.193-.081-.174-.083-.198c-.5-1.26-.54-2.621.104-3.947l.029-.055-.075-.099-.204-.239c-.544-.6-1.19-.968-1.931-1.143zm9.215.197c-1.025-.316-2.075-.42-3.026-.197-.741.174-1.388.542-1.933 1.144-.072.08-.14.159-.204.238l-.075.099.028.055c.599 1.231.606 2.493.204 3.675l-.1.272-.059.143-.105.229.11.193c.273.464.629 1.004 1.077 1.612.863 1.171 1.94 2.426 3.254 3.745l.367.363.334-.216c.116-.078.232-.16.346-.243l.34-.26c1.023-.814 1.813-1.72 2.295-2.637 1.524-2.903.831-6.182-2.046-7.91l-.236-.104c-.15-.06-.342-.13-.571-.201z"/>
</svg>
