<svg xmlns="http://www.w3.org/2000/svg" width="151" height="151" viewBox="0 0 151 151">
    <g fill="none" fill-rule="evenodd">
        <rect width="151" height="151" fill="#F4F4F4" rx="12"/>
        <g>
            <path fill="#636363" fill-rule="nonzero" d="M34.076.055C33.426-.17 32.75.313 32.75 1l.001 6.25h-8.668c-.513 0-.935.386-.993.883l-.007.117.001 52.166H12c-.552 0-1 .448-1 1 0 .514.386.936.883.994l.117.007h20.751l-.001 7.055c0 .647.6 1.112 1.211.978l.115-.032 23.203-8.002H70c.552 0 1-.447 1-1 0-.512-.386-.935-.883-.993L70 60.417H58.112V9.055c0-.384-.22-.73-.558-.897l-.117-.049zm.674 2.347l21.362 7.366v50.935L34.75 68.069V2.402zM25.084 9.25h7.667v51.166h-7.667V9.25zm14.981 25.279c-1.112 0-2.014.901-2.014 2.014 0 1.112.902 2.013 2.014 2.013.748 0 1.401-.408 1.749-1.014h4.293c.552 0 1-.447 1-1 0-.512-.386-.935-.884-.993l-.116-.006-4.294-.001c-.347-.606-1-1.013-1.748-1.013z" transform="translate(39 27)"/>
            <g transform="translate(39 27) translate(0 23)">
                <rect width="29" height="29" fill="#277F8E" rx="12"/>
                <path fill="#FFF" fill-rule="nonzero" d="M17.22 10.22c.293-.293.767-.293 1.06 0l4 4c.293.293.293.767 0 1.06l-4 4c-.293.293-.767.293-1.06 0-.293-.293-.293-.767 0-1.06l2.719-2.72H7.75c-.38 0-.693-.282-.743-.648L7 14.75c0-.414.336-.75.75-.75h12.189l-2.72-2.72c-.266-.266-.29-.683-.072-.976z"/>
            </g>
        </g>
        <text fill="#636363" font-family="Lato-Bold, Lato" font-size="13" font-weight="bold" letter-spacing="1.3">
            <tspan x="37.5" y="120">BETRETEN</tspan>
        </text>
    </g>
</svg>
