<?xml version="1.0" encoding="UTF-8"?>
<svg width="151px" height="151px" viewBox="0 0 151 151" version="1.1" xmlns="http://www.w3.org/2000/svg" xmlns:xlink="http://www.w3.org/1999/xlink">
    <!-- Generator: Sketch 63.1 (92452) - https://sketch.com -->
    <title>button-betreten</title>
    <desc>Created with Sketch.</desc>
    <g id="Page-1" stroke="none" stroke-width="1" fill="none" fill-rule="evenodd">
        <g id="button-betreten" fill-rule="nonzero">
            <rect id="Rectangle" fill="#F4F4F4" x="0" y="0" width="151" height="151" rx="12"></rect>
            <g id="Group" transform="translate(39.000000, 27.000000)">
                <path d="M34.076,0.055 C33.426,-0.17 32.75,0.313 32.75,1 L32.751,7.25 L24.083,7.25 C23.57,7.25 23.148,7.636 23.09,8.133 L23.083,8.25 L23.084,60.416 L12,60.416 C11.448,60.416 11,60.864 11,61.416 C11,61.93 11.386,62.352 11.883,62.41 L12,62.417 L32.751,62.417 L32.75,69.472 C32.75,70.119 33.35,70.584 33.961,70.45 L34.076,70.418 L57.279,62.416 L70,62.416 C70.552,62.416 71,61.969 71,61.416 C71,60.904 70.614,60.481 70.117,60.423 L70,60.417 L58.112,60.417 L58.112,9.055 C58.112,8.671 57.892,8.325 57.554,8.158 L57.437,8.109 L34.076,0.055 Z M34.75,2.402 L56.112,9.768 L56.112,60.703 L34.75,68.069 L34.75,2.402 Z M25.084,9.25 L32.751,9.25 L32.751,60.416 L25.084,60.416 L25.084,9.25 L25.084,9.25 Z M40.065,34.529 C38.953,34.529 38.051,35.43 38.051,36.543 C38.051,37.655 38.953,38.556 40.065,38.556 C40.813,38.556 41.466,38.148 41.814,37.542 L46.107,37.542 C46.659,37.542 47.107,37.095 47.107,36.542 C47.107,36.03 46.721,35.607 46.223,35.549 L46.107,35.543 L41.813,35.542 C41.466,34.936 40.813,34.529 40.065,34.529 L40.065,34.529 Z" id="Shape" fill="#636363"></path>
                <g transform="translate(0.000000, 23.000000)">
                    <rect id="Rectangle" fill="#277F8E" x="0" y="0" width="29" height="29" rx="12"></rect>
                    <path d="M17.22,10.22 C17.513,9.927 17.987,9.927 18.28,10.22 L22.28,14.22 C22.573,14.513 22.573,14.987 22.28,15.28 L18.28,19.28 C17.987,19.573 17.513,19.573 17.22,19.28 C16.927,18.987 16.927,18.513 17.22,18.22 L19.939,15.5 L7.75,15.5 C7.37,15.5 7.057,15.218 7.007,14.852 L7,14.75 C7,14.336 7.336,14 7.75,14 L19.939,14 L17.219,11.28 C16.953,11.014 16.929,10.597 17.147,10.304 L17.22,10.22 Z" id="Path" fill="#FFFFFF"></path>
                </g>
            </g>
            <g id="BETRETEN" transform="translate(44.000000, 111.000000)" fill="#636363">
                <g id="path-1-link">
                    <path d="M3.549,9.399 C4.095,9.399 4.5803333,9.329667 5.005,9.191 C5.4296667,9.052333 5.7871667,8.860583 6.0775,8.61575 C6.3678333,8.370917 6.5888333,8.0795 6.7405,7.7415 C6.8921667,7.4035 6.968,7.035167 6.968,6.6365 C6.968,5.5315 6.3223333,4.833833 5.031,4.5435 C5.3213333,4.443833 5.5715833,4.3225 5.78175,4.1795 C5.9919167,4.0365 6.16525,3.87725 6.30175,3.70175 C6.43825,3.52625 6.539,3.33775 6.604,3.13625 C6.669,2.93475 6.7015,2.7235 6.7015,2.5025 C6.7015,2.116833 6.6365,1.770167 6.5065,1.4625 C6.3765,1.154833 6.17175,0.892667 5.89225,0.676 C5.61275,0.459333 5.25525,0.2925 4.81975,0.1755 C4.38425,0.0585 3.8588333,0 3.2435,0 L3.2435,0 L0,0 L0,9.399 L3.549,9.399 Z M3.146,4.069 L1.7485,4.069 L1.7485,1.352 L3.2435,1.352 C3.8328333,1.352 4.2661667,1.456 4.5435,1.664 C4.8208333,1.872 4.9595,2.220833 4.9595,2.7105 C4.9595,3.182833 4.8056667,3.527333 4.498,3.744 C4.1903333,3.960667 3.7396667,4.069 3.146,4.069 L3.146,4.069 Z M3.523,8.034 L1.7485,8.034 L1.7485,5.278 L3.5165,5.278 C3.8241667,5.278 4.0863333,5.308333 4.303,5.369 C4.5196667,5.429667 4.6973333,5.517417 4.836,5.63225 C4.9746667,5.747083 5.0765,5.88575 5.1415,6.04825 C5.2065,6.21075 5.239,6.393833 5.239,6.5975 C5.239,6.7925 5.20975,6.976667 5.15125,7.15 C5.09275,7.323333 4.9974167,7.475 4.86525,7.605 C4.7330833,7.735 4.5575833,7.839 4.33875,7.917 C4.1199167,7.995 3.848,8.034 3.523,8.034 L3.523,8.034 Z M14.3975,9.399 L14.3975,8.0015 L10.231,8.0015 L10.231,5.343 L13.5135,5.343 L13.5135,3.9975 L10.231,3.9975 L10.231,1.391 L14.3975,1.391 L14.3975,0 L8.4695,0 L8.4695,9.399 L14.3975,9.399 Z M19.708,9.399 L19.708,1.4365 L22.5355,1.4365 L22.5355,0 L15.119,0 L15.119,1.4365 L17.9595,1.4365 L17.9595,9.399 L19.708,9.399 Z M25.454,9.399 L25.454,5.7265 L26.2015,5.7265 C26.3748333,5.7265 26.5059167,5.750333 26.59475,5.798 C26.6835833,5.845667 26.7648333,5.925833 26.8385,6.0385 L26.8385,6.0385 L28.8145,9.048 C28.8881667,9.160667 28.9780833,9.247333 29.08425,9.308 C29.1904167,9.368667 29.3193333,9.399 29.471,9.399 L29.471,9.399 L31.044,9.399 L28.691,5.928 C28.5306667,5.694 28.34,5.514167 28.119,5.3885 C28.4483333,5.2845 28.7419167,5.145833 28.99975,4.9725 C29.2575833,4.799167 29.47425,4.597667 29.64975,4.368 C29.82525,4.138333 29.9595833,3.882667 30.05275,3.601 C30.1459167,3.319333 30.1925,3.020333 30.1925,2.704 C30.1925,2.305333 30.12425,1.94025 29.98775,1.60875 C29.85125,1.27725 29.63675,0.992333 29.34425,0.754 C29.05175,0.515667 28.6769167,0.330417 28.21975,0.19825 C27.7625833,0.066083 27.2133333,0 26.572,0 L26.572,0 L23.7055,0 L23.7055,9.399 L25.454,9.399 Z M26.546,4.472 L25.454,4.472 L25.454,1.352 L26.572,1.352 C27.2176667,1.352 27.6975833,1.479833 28.01175,1.7355 C28.3259167,1.991167 28.483,2.357333 28.483,2.834 C28.483,3.072333 28.444,3.291167 28.366,3.4905 C28.288,3.689833 28.1699167,3.862083 28.01175,4.00725 C27.8535833,4.152417 27.6520833,4.266167 27.40725,4.3485 C27.1624167,4.430833 26.8753333,4.472 26.546,4.472 L26.546,4.472 Z M38.09,9.399 L38.09,8.0015 L33.9235,8.0015 L33.9235,5.343 L37.206,5.343 L37.206,3.9975 L33.9235,3.9975 L33.9235,1.391 L38.09,1.391 L38.09,0 L32.162,0 L32.162,9.399 L38.09,9.399 Z M43.4005,9.399 L43.4005,1.4365 L46.228,1.4365 L46.228,0 L38.8115,0 L38.8115,1.4365 L41.652,1.4365 L41.652,9.399 L43.4005,9.399 Z M53.2675,9.399 L53.2675,8.0015 L49.101,8.0015 L49.101,5.343 L52.3835,5.343 L52.3835,3.9975 L49.101,3.9975 L49.101,1.391 L53.2675,1.391 L53.2675,0 L47.3395,0 L47.3395,9.399 L53.2675,9.399 Z M56.3225,9.399 L56.3225,3.627 C56.3225,3.514333 56.31925,3.38975 56.31275,3.25325 C56.30625,3.11675 56.2965,2.979167 56.2835,2.8405 L56.2835,2.8405 L61.1975,9.1 C61.284167,9.212667 61.373,9.290667 61.464,9.334 C61.555,9.377333 61.669833,9.399 61.8085,9.399 L61.8085,9.399 L62.712,9.399 L62.712,0 L61.1715,0 L61.1715,5.7135 C61.1715,5.839167 61.17475,5.974583 61.18125,6.11975 C61.18775,6.264917 61.199667,6.413333 61.217,6.565 L61.217,6.565 L56.2835,0.2795 C56.2358333,0.218833 56.1925,0.170083 56.1535,0.13325 C56.1145,0.096417 56.0744167,0.06825 56.03325,0.04875 C55.9920833,0.02925 55.9455,0.01625 55.8935,0.00975 C55.8415,0.00325 55.7765,0 55.6985,0 L55.6985,0 L54.782,0 L54.782,9.399 L56.3225,9.399 Z" id="path-1"></path>
                </g>
            </g>
        </g>
    </g>
</svg>