<?xml version="1.0" encoding="UTF-8"?>
<svg width="151px" height="151px" viewBox="0 0 151 151" version="1.1" xmlns="http://www.w3.org/2000/svg" xmlns:xlink="http://www.w3.org/1999/xlink">
    <!-- Generator: Sketch 63.1 (92452) - https://sketch.com -->
    <title>button-spenden</title>
    <desc>Created with Sketch.</desc>
    <g id="Page-1" stroke="none" stroke-width="1" fill="none" fill-rule="evenodd">
        <g id="button-spenden">
            <rect id="Rectangle" fill="#F4F4F4" fill-rule="nonzero" x="0" y="0" width="151" height="151" rx="12"></rect>
            <g id="SPENDEN" transform="translate(47.000000, 107.000000)">
                <g id="path-1-link"></g>
            </g>
            <g id="Group" transform="translate(40.000000, 31.000000)" fill-rule="nonzero">
                <path d="M15.11,28.215 C19.35,27.539 24.177,28.232 28.755,31.351 C29.15,31.621 29.54,31.906 29.923,32.209 L30.304,32.517 C33.452,35.124 36.648,36.872 39.725,37.925 C40.795,38.291 41.769,38.545 42.629,38.705 L42.977,38.767 C43.189,38.801 43.362,38.825 43.496,38.839 L51.58,39.587 C52.603,39.682 53.529,40.087 54.266,40.705 L54.456,40.874 L64.278,31.998 C65.858,30.572 68.199,30.415 69.951,31.59 L70.143,31.726 C72.13,33.209 72.583,35.983 71.209,38.014 L71.075,38.202 L58.435,55.049 C57.096,56.832 55.026,57.911 52.808,57.995 L52.53,58 L32.406,58 C30.853,58 29.321,57.652 27.921,56.984 L27.574,56.811 L17.274,51.41 C16.17,50.831 14.952,50.506 13.709,50.456 L13.369,50.449 L2.34,50.449 C1.102,50.449 0.089,49.488 0.006,48.271 L0,48.111 L0,33.707 C0,32.47 0.962,31.457 2.178,31.375 L2.338,31.37 L3.525,31.37 C4.985,31.37 6.435,31.14 7.821,30.688 L8.281,30.529 L14.001,28.443 L14.193,28.393 C14.414,28.34 14.723,28.277 15.11,28.215 Z M27.629,33.004 C23.651,30.294 19.464,29.627 15.77,30.139 L15.425,30.19 C15.231,30.221 15.065,30.252 14.932,30.278 L14.617,30.345 L8.967,32.408 C7.368,32.991 5.687,33.314 3.988,33.363 L3.525,33.37 L2.338,33.37 C2.175,33.37 2.038,33.486 2.007,33.64 L2,33.706 L2,48.11 C2,48.273 2.116,48.41 2.27,48.441 L2.338,48.448 L13.37,48.448 C14.924,48.448 16.456,48.796 17.855,49.464 L18.202,49.638 L28.503,55.038 C29.607,55.617 30.824,55.942 32.067,55.992 L32.407,55.999 L52.53,55.999 C54.139,55.999 55.66,55.279 56.678,54.047 L56.835,53.847 L69.475,37.001 C70.345,35.841 70.109,34.195 68.946,33.328 C67.992,32.616 66.686,32.638 65.762,33.362 L65.619,33.482 L55.616,42.519 L55.635,42.559 C55.852,43.077 55.983,43.639 56.009,44.226 L56.014,44.448 C56.014,46.995 54.058,49.101 51.543,49.313 L51.326,49.326 L37.636,49.876 C36.287,49.93 34.95,49.616 33.769,48.969 L33.499,48.814 L22.513,42.188 C22.04,41.903 21.888,41.288 22.173,40.815 C22.438,40.376 22.986,40.214 23.443,40.421 L23.545,40.475 L34.532,47.101 C35.36,47.6 36.304,47.868 37.267,47.881 L37.556,47.877 L51.246,47.327 C52.792,47.266 54.014,45.995 54.014,44.447 C54.014,43.018 52.969,41.815 51.572,41.599 L51.396,41.578 L43.511,40.848 C42.614,40.788 41.078,40.501 39.077,39.816 C35.777,38.686 32.368,36.822 29.029,34.056 C28.571,33.678 28.104,33.326 27.629,33.003 L27.629,33.004 Z" id="Shape" fill="#636363"></path>
                <g transform="translate(32.000000, 0.000000)">
                    <rect id="Rectangle" fill="#277F8E" x="0" y="0" width="29" height="29" rx="12"></rect>
                    <path d="M14.75,9 C15.164,9 15.5,9.336 15.5,9.75 L15.5,14 L19.75,14 C20.13,14 20.443,14.282 20.493,14.648 L20.5,14.75 C20.5,15.164 20.164,15.5 19.75,15.5 L15.499,15.5 L15.5,19.75 C15.5,20.13 15.218,20.443 14.852,20.493 L14.75,20.5 C14.336,20.5 14,20.164 14,19.75 L13.999,15.5 L9.75,15.5 C9.37,15.5 9.057,15.218 9.007,14.852 L9,14.75 C9,14.336 9.336,14 9.75,14 L14,14 L14,9.75 C14,9.37 14.282,9.057 14.648,9.007 L14.75,9 Z" id="Path" fill="#FFFFFF"></path>
                </g>
            </g>
            <path d="M49.0875,116.607 C49.6075,116.607 50.069,116.527917 50.472,116.36975 C50.875,116.211583 51.21625,115.994917 51.49575,115.71975 C51.77525,115.444583 51.9875833,115.12175 52.13275,114.75125 C52.2779167,114.38075 52.3505,113.983167 52.3505,113.5585 C52.3505,113.1685 52.28875,112.837 52.16525,112.564 C52.04175,112.291 51.8781667,112.06025 51.6745,111.87175 C51.4708333,111.68325 51.239,111.52725 50.979,111.40375 C50.719,111.28025 50.4535833,111.171917 50.18275,111.07875 C49.9119167,110.985583 49.6465,110.897833 49.3865,110.8155 C49.1265,110.733167 48.8946667,110.64 48.691,110.536 C48.4873333,110.432 48.32375,110.306333 48.20025,110.159 C48.07675,110.011667 48.015,109.8275 48.015,109.6065 C48.015,109.433167 48.0453333,109.273917 48.106,109.12875 C48.1666667,108.983583 48.25875,108.859 48.38225,108.755 C48.50575,108.651 48.6574167,108.56975 48.83725,108.51125 C49.0170833,108.45275 49.2283333,108.4235 49.471,108.4235 C49.7396667,108.4235 49.9725833,108.457083 50.16975,108.52425 C50.3669167,108.591417 50.5391667,108.666167 50.6865,108.7485 C50.8338333,108.830833 50.9616667,108.905583 51.07,108.97275 C51.1783333,109.039917 51.2758333,109.0735 51.3625,109.0735 C51.4491667,109.0735 51.5239167,109.054 51.58675,109.015 C51.6495833,108.976 51.7048333,108.908833 51.7525,108.8135 L51.7525,108.8135 L52.1815,107.988 C51.8521667,107.676 51.4535,107.433333 50.9855,107.26 C50.5175,107.086667 50.0061667,107 49.4515,107 C48.9618333,107 48.5263333,107.075833 48.145,107.2275 C47.7636667,107.379167 47.4419167,107.580667 47.17975,107.832 C46.9175833,108.083333 46.71825,108.3715 46.58175,108.6965 C46.44525,109.0215 46.377,109.355167 46.377,109.6975 C46.377,110.1265 46.43875,110.48725 46.56225,110.77975 C46.68575,111.07225 46.8493333,111.316 47.053,111.511 C47.2566667,111.706 47.4885,111.864167 47.7485,111.9855 C48.0085,112.106833 48.2728333,112.210833 48.5415,112.2975 C48.8101667,112.384167 49.0745,112.464333 49.3345,112.538 C49.5945,112.611667 49.8263333,112.701583 50.03,112.80775 C50.2336667,112.913917 50.39725,113.045 50.52075,113.201 C50.64425,113.357 50.706,113.5585 50.706,113.8055 C50.706,114.2475 50.5695,114.586583 50.2965,114.82275 C50.0235,115.058917 49.6378333,115.177 49.1395,115.177 C48.8145,115.177 48.5360833,115.132583 48.30425,115.04375 C48.0724167,114.954917 47.8709167,114.856333 47.69975,114.748 C47.5285833,114.639667 47.3801667,114.541083 47.2545,114.45225 C47.1288333,114.363417 47.0118333,114.319 46.9035,114.319 C46.8211667,114.319 46.7464167,114.339583 46.67925,114.38075 C46.6120833,114.421917 46.5546667,114.472833 46.507,114.5335 L46.507,114.5335 L46,115.372 C46.182,115.558333 46.3889167,115.727333 46.62075,115.879 C46.8525833,116.030667 47.10175,116.160667 47.36825,116.269 C47.63475,116.377333 47.9131667,116.46075 48.2035,116.51925 C48.4938333,116.57775 48.7885,116.607 49.0875,116.607 Z M55.4965,116.503 L55.4965,113.1945 L56.8095,113.1945 C57.4205,113.1945 57.9535,113.118667 58.4085,112.967 C58.8635,112.815333 59.2426667,112.603 59.546,112.33 C59.8493333,112.057 60.0768333,111.730917 60.2285,111.35175 C60.3801667,110.972583 60.456,110.5555 60.456,110.1005 C60.456,109.662833 60.3845,109.259833 60.2415,108.8915 C60.0985,108.523167 59.8775,108.206833 59.5785,107.9425 C59.2795,107.678167 58.9003333,107.472333 58.441,107.325 C57.9816667,107.177667 57.4378333,107.104 56.8095,107.104 L56.8095,107.104 L53.748,107.104 L53.748,116.503 L55.4965,116.503 Z M56.8095,111.8295 L55.4965,111.8295 L55.4965,108.456 L56.8095,108.456 C57.1301667,108.456 57.4096667,108.493917 57.648,108.56975 C57.8863333,108.645583 58.0835,108.755 58.2395,108.898 C58.3955,109.041 58.5125,109.214333 58.5905,109.418 C58.6685,109.621667 58.7075,109.849167 58.7075,110.1005 C58.7075,110.364833 58.6685,110.60425 58.5905,110.81875 C58.5125,111.03325 58.3955,111.21525 58.2395,111.36475 C58.0835,111.51425 57.8863333,111.629083 57.648,111.70925 C57.4096667,111.789417 57.1301667,111.8295 56.8095,111.8295 L56.8095,111.8295 Z M67.7425,116.503 L67.7425,115.1055 L63.576,115.1055 L63.576,112.447 L66.8585,112.447 L66.8585,111.1015 L63.576,111.1015 L63.576,108.495 L67.7425,108.495 L67.7425,107.104 L61.8145,107.104 L61.8145,116.503 L67.7425,116.503 Z M70.7975,116.503 L70.7975,110.731 C70.7975,110.618333 70.79425,110.49375 70.78775,110.35725 C70.78125,110.22075 70.7715,110.083167 70.7585,109.9445 L70.7585,109.9445 L75.6725,116.204 C75.7591667,116.316667 75.848,116.394667 75.939,116.438 C76.03,116.481333 76.1448333,116.503 76.2835,116.503 L76.2835,116.503 L77.187,116.503 L77.187,107.104 L75.6465,107.104 L75.6465,112.8175 C75.6465,112.943167 75.64975,113.078583 75.65625,113.22375 C75.66275,113.368917 75.6746667,113.517333 75.692,113.669 L75.692,113.669 L70.7585,107.3835 C70.7108333,107.322833 70.6675,107.274083 70.6285,107.23725 C70.5895,107.200417 70.5494167,107.17225 70.50825,107.15275 C70.4670833,107.13325 70.4205,107.12025 70.3685,107.11375 C70.3165,107.10725 70.2515,107.104 70.1735,107.104 L70.1735,107.104 L69.257,107.104 L69.257,116.503 L70.7975,116.503 Z M82.673,116.503 C83.3836667,116.503 84.0315,116.388167 84.6165,116.1585 C85.2015,115.928833 85.702,115.606 86.118,115.19 C86.534,114.774 86.8568333,114.277833 87.0865,113.7015 C87.3161667,113.125167 87.431,112.4925 87.431,111.8035 C87.431,111.1145 87.3161667,110.481833 87.0865,109.9055 C86.8568333,109.329167 86.534,108.834083 86.118,108.42025 C85.702,108.006417 85.2015,107.683583 84.6165,107.45175 C84.0315,107.219917 83.3836667,107.104 82.673,107.104 L82.673,107.104 L79.085,107.104 L79.085,116.503 L82.673,116.503 Z M82.673,115.112 L80.8465,115.112 L80.8465,108.495 L82.673,108.495 C83.1323333,108.495 83.5450833,108.570833 83.91125,108.7225 C84.2774167,108.874167 84.5883333,109.091917 84.844,109.37575 C85.0996667,109.659583 85.2968333,110.00625 85.4355,110.41575 C85.5741667,110.82525 85.6435,111.287833 85.6435,111.8035 C85.6435,112.319167 85.5741667,112.78175 85.4355,113.19125 C85.2968333,113.60075 85.0996667,113.947417 84.844,114.23125 C84.5883333,114.515083 84.2774167,114.732833 83.91125,114.8845 C83.5450833,115.036167 83.1323333,115.112 82.673,115.112 L82.673,115.112 Z M94.7305,116.503 L94.7305,115.1055 L90.564,115.1055 L90.564,112.447 L93.8465,112.447 L93.8465,111.1015 L90.564,111.1015 L90.564,108.495 L94.7305,108.495 L94.7305,107.104 L88.8025,107.104 L88.8025,116.503 L94.7305,116.503 Z M97.7855,116.503 L97.7855,110.731 C97.7855,110.618333 97.78225,110.49375 97.77575,110.35725 C97.76925,110.22075 97.7595,110.083167 97.7465,109.9445 L97.7465,109.9445 L102.6605,116.204 C102.747167,116.316667 102.836,116.394667 102.927,116.438 C103.018,116.481333 103.132833,116.503 103.2715,116.503 L103.2715,116.503 L104.175,116.503 L104.175,107.104 L102.6345,107.104 L102.6345,112.8175 C102.6345,112.943167 102.63775,113.078583 102.64425,113.22375 C102.65075,113.368917 102.662667,113.517333 102.68,113.669 L102.68,113.669 L97.7465,107.3835 C97.6988333,107.322833 97.6555,107.274083 97.6165,107.23725 C97.5775,107.200417 97.5374167,107.17225 97.49625,107.15275 C97.4550833,107.13325 97.4085,107.12025 97.3565,107.11375 C97.3045,107.10725 97.2395,107.104 97.1615,107.104 L97.1615,107.104 L96.245,107.104 L96.245,116.503 L97.7855,116.503 Z" id="path-1" fill="#636363" fill-rule="nonzero"></path>
        </g>
    </g>
</svg>