<svg xmlns="http://www.w3.org/2000/svg" width="36" height="36" viewBox="0 0 36 36">
    <path fill="#FFF" d="M28 6c1.105 0 2 .895 2 2v1.671c2.828.134 5.08 2.468 5.08 5.329 0 2.833-2.209 5.15-4.998 5.324l-.337.01h-.73c-.7 1.452-1.74 2.709-3.015 3.667L32 24v2c0 2.21-1.79 4-4 4H6c-2.21 0-4-1.79-4-4v-2h6c-2.429-1.823-4-4.728-4-8V8c0-1.105.895-2 2-2h22zm2 20H4c0 1.026.772 1.871 1.767 1.987L6 28h22c1.026 0 1.871-.772 1.987-1.767L30 26zM28 8H6v8c0 4.284 3.368 7.782 7.6 7.99l.4.01h6c4.284 0 7.782-3.368 7.99-7.6L28 16V8zm2 3.676V16c0 .804-.095 1.586-.274 2.335h.019c1.841 0 3.334-1.493 3.334-3.335 0-1.745-1.34-3.177-3.047-3.323L30 11.676z"/>
</svg>
