<svg xmlns="http://www.w3.org/2000/svg" width="310" height="151" viewBox="0 0 310 151">
    <g fill="none" fill-rule="evenodd">
        <rect width="310" height="151" fill="#F4F4F4" rx="12"/>
        <path fill="#636363" fill-rule="nonzero" d="M50.63 120c.147 0 .271-.041.373-.124.102-.082.17-.173.205-.273l.702-1.917h3.894l.701 1.917c.044.113.114.207.212.283.097.076.222.114.373.114h1.352l-3.691-9.399h-1.788L49.271 120h1.358zm4.725-3.549h-2.996l1.143-3.113c.057-.143.114-.31.173-.501.058-.19.118-.397.178-.618.061.222.123.426.186.615.063.188.12.352.172.49l1.144 3.127zM62.252 120v-5.772c0-.113-.004-.237-.01-.374-.007-.136-.017-.274-.03-.412l4.914 6.259c.087.113.176.19.267.234.091.043.206.065.344.065h.904v-9.399h-1.54v5.713c0 .126.003.262.01.407.006.145.018.293.035.445l-4.934-6.285c-.047-.061-.09-.11-.13-.147-.038-.037-.079-.065-.12-.084-.04-.02-.088-.033-.14-.04-.052-.006-.117-.009-.195-.009h-.916V120h1.54zm18.908 0v-1.443h-3.763v-7.956h-1.749V120h5.512zm4.478 0v-9.399h-1.755V120h1.755zm7.865 0l3.796-9.399h-1.41c-.147 0-.27.041-.37.124-.1.082-.17.173-.209.273l-2.203 5.733c-.147.38-.27.82-.37 1.319-.061-.247-.125-.482-.192-.705-.067-.223-.138-.428-.212-.614l-2.21-5.733c-.047-.118-.119-.213-.214-.287-.095-.073-.219-.11-.37-.11h-1.411L91.924 120h1.58zm12.006 0v-1.397h-4.166v-2.659h3.282v-1.346h-3.282v-2.606h4.166v-1.391h-5.928V120h5.928zm5.882-3.257v-1.338h-3.367v1.338h3.367zM120.22 120v-1.397h-4.167v-2.659h3.282v-1.346h-3.282v-2.606h4.166v-1.391h-5.928V120h5.928zm7.267 0l3.795-9.399h-1.41c-.147 0-.27.041-.37.124-.1.082-.17.173-.209.273l-2.203 5.733c-.147.38-.27.82-.37 1.319-.061-.247-.125-.482-.192-.705-.067-.223-.138-.428-.212-.614l-2.21-5.733c-.047-.118-.119-.213-.214-.287-.095-.073-.219-.11-.37-.11h-1.411l3.796 9.399h1.58zm12.005 0v-1.397h-4.167v-2.659h3.283v-1.346h-3.282v-2.606h4.166v-1.391h-5.928V120h5.928zm4.355 0v-5.772c0-.113-.003-.237-.01-.374-.006-.136-.016-.274-.029-.412l4.914 6.259c.087.113.175.19.267.234.09.043.205.065.344.065h.904v-9.399h-1.541v5.713c0 .126.003.262.01.407.006.145.018.293.035.445l-4.933-6.285c-.048-.061-.091-.11-.13-.147-.039-.037-.08-.065-.12-.084-.041-.02-.088-.033-.14-.04-.052-.006-.117-.009-.195-.009h-.917V120h1.541zm13.383 0v-7.963h2.828v-1.436h-7.416v1.436h2.84V120h1.749zm12.844 0v-7.963h2.828v-1.436h-7.417v1.436h2.841V120h1.749zm11.167 0v-1.397h-4.166v-2.659h3.282v-1.346h-3.282v-2.606h4.166v-1.391h-5.928V120h5.928zm4.784 0v-9.399h-1.755V120h1.755zm8.925 0v-1.443h-3.764v-7.956h-1.748V120h5.512zm4.05 0v-5.772c0-.113-.004-.237-.01-.374-.007-.136-.017-.274-.03-.412l4.915 6.259c.086.113.175.19.266.234.091.043.206.065.345.065h.903v-9.399h-1.54v5.713c0 .126.003.262.01.407.006.145.018.293.035.445l-4.934-6.285c-.047-.061-.09-.11-.13-.147-.038-.037-.079-.065-.12-.084-.04-.02-.088-.033-.14-.04-.051-.006-.117-.009-.194-.009h-.917V120h1.54zm15.515 0v-1.397h-4.167v-2.659h3.283v-1.346h-3.282v-2.606h4.166v-1.391h-5.928V120h5.928zm4.576 0v-4.108h4.407V120h1.761v-9.399h-1.761v4.043h-4.407v-4.043h-1.762V120h1.762zm10.907 0v-6.071c0-.117-.003-.244-.01-.38-.006-.137-.018-.277-.035-.42l2.879 5.35c.065.121.15.216.254.283.103.067.225.1.363.1h.241c.139 0 .26-.033.364-.1.104-.067.189-.162.254-.283l2.84-5.33c-.013.139-.023.275-.03.41-.006.134-.009.257-.009.37V120h1.54v-9.399h-1.319c-.078 0-.145.002-.202.007-.056.004-.107.015-.152.032-.046.017-.087.046-.124.085-.037.038-.072.09-.107.156l-2.782 5.206c-.074.139-.143.284-.208.435-.065.152-.128.306-.189.462-.06-.152-.122-.302-.185-.452-.063-.15-.13-.293-.204-.432l-2.808-5.22c-.035-.064-.072-.117-.111-.155-.039-.04-.081-.068-.127-.085-.045-.017-.096-.028-.153-.032-.056-.005-.123-.007-.201-.007h-1.32V120h1.541zm17.777 0v-1.397h-4.166v-2.659h3.282v-1.346h-3.282v-2.606h4.166v-1.391h-5.928V120h5.928zm4.356 0v-5.772c0-.113-.004-.237-.01-.374-.007-.136-.017-.274-.03-.412l4.915 6.259c.086.113.175.19.266.234.091.043.206.065.344.065h.904v-9.399h-1.54v5.713c0 .126.003.262.01.407.006.145.018.293.035.445l-4.934-6.285c-.047-.061-.09-.11-.13-.147-.038-.037-.079-.065-.12-.084-.04-.02-.088-.033-.14-.04-.051-.006-.117-.009-.194-.009h-.917V120h1.54z"/>
        <g transform="translate(103 34)">
            <path fill="#636363" fill-rule="nonzero" d="M67 11c2.21 0 4 1.79 4 4v7.302l.057-.033 16.457-9.143c.667-.37 1.486.112 1.486.874v32c0 .762-.82 1.244-1.486.874l-16.457-9.143L71 37.7V45c0 2.21-1.79 4-4 4H26c-2.21 0-4-1.79-4-4V15c0-2.21 1.79-4 4-4zm0 2H26c-1.105 0-2 .895-2 2v30c0 1.105.895 2 2 2h41c1.105 0 2-.895 2-2V15c0-1.105-.895-2-2-2zm20 2.699l-14.971 8.318C71.394 24.37 71 25.039 71 25.765v8.47c0 .726.394 1.395 1.029 1.748L87 44.3V15.699z"/>
            <rect width="44" height="22" fill="#C20039" rx="10"/>
            <path fill="#FFF" fill-rule="nonzero" d="M13.664 14.953v-1.221H10.48V7H9v7.953h4.664zm4.156 0V7h-1.485v7.953h1.485zm7.022 0L28.054 7H26.86c-.124 0-.229.035-.313.104-.085.07-.143.147-.176.231l-1.865 4.852c-.124.322-.229.694-.313 1.116-.052-.209-.106-.408-.162-.597-.057-.189-.117-.362-.18-.52l-1.87-4.85c-.04-.1-.1-.18-.18-.243-.081-.062-.186-.093-.314-.093h-1.194l3.212 7.953h1.337zm10.525 0v-1.182h-3.525v-2.25h2.777v-1.139h-2.777V8.178h3.525V7h-5.016v7.953h5.016z"/>
        </g>
    </g>
</svg>
