<svg xmlns="http://www.w3.org/2000/svg" width="63" height="63" viewBox="0 0 63 63">
    <g fill="none" fill-rule="evenodd">
        <rect width="63" height="63" fill="#D24557" rx="12"/>
        <path fill="#FFF" fill-rule="nonzero" d="M20.695 53c.42 0 .793-.053 1.12-.16.327-.107.602-.254.825-.443.223-.188.393-.412.51-.672.117-.26.175-.543.175-.85 0-.85-.497-1.387-1.49-1.61.223-.077.416-.17.578-.28.161-.11.294-.233.4-.367.105-.136.182-.28.232-.436.05-.154.075-.317.075-.487 0-.297-.05-.563-.15-.8-.1-.237-.258-.438-.473-.605-.215-.167-.49-.295-.825-.385-.335-.09-.739-.135-1.212-.135h-2.495V53h2.73zm-.31-4.1H19.31v-2.09h1.15c.453 0 .787.08 1 .24.213.16.32.428.32.805 0 .363-.118.628-.355.795-.237.167-.583.25-1.04.25zm.29 3.05H19.31v-2.12h1.36c.237 0 .438.023.605.07.167.047.303.114.41.203.107.088.185.194.235.32.05.124.075.265.075.422 0 .15-.023.292-.068.425-.044.133-.118.25-.22.35-.101.1-.236.18-.405.24-.168.06-.377.09-.627.09zm5.15 1.05c.113 0 .21-.032.288-.095.078-.063.13-.133.157-.21l.54-1.475h2.995l.54 1.475c.033.087.088.16.163.218.075.058.17.087.287.087h1.04l-2.84-7.23H27.62L24.78 53h1.045zm3.635-2.73h-2.305l.88-2.395c.043-.11.087-.238.133-.385.044-.147.09-.305.137-.475.047.17.094.328.143.472.048.145.092.271.132.378l.88 2.405zM34.97 53v-2.825h.575c.133 0 .234.018.302.055.069.037.131.098.188.185l1.52 2.315c.057.087.126.153.208.2.081.047.18.07.297.07h1.21l-1.81-2.67c-.123-.18-.27-.318-.44-.415.253-.08.48-.187.677-.32.199-.133.365-.288.5-.465.136-.177.239-.373.31-.59.072-.217.108-.447.108-.69 0-.307-.053-.587-.157-.843-.105-.255-.27-.474-.495-.657-.226-.183-.514-.326-.866-.428-.351-.101-.774-.152-1.267-.152h-2.205V53h1.345zm.84-3.79h-.84v-2.4h.86c.497 0 .866.098 1.108.295.241.197.362.478.362.845 0 .183-.03.352-.09.505-.06.153-.15.286-.273.398-.121.111-.276.199-.465.262-.188.063-.409.095-.662.095zm7.145 3.87c.4 0 .755-.06 1.065-.182.31-.122.572-.289.787-.5.215-.212.379-.46.49-.745.112-.285.168-.591.168-.918 0-.3-.048-.555-.143-.765-.095-.21-.22-.387-.377-.532-.157-.146-.335-.266-.535-.36-.2-.096-.404-.179-.612-.25-.209-.072-.413-.14-.613-.203s-.378-.135-.535-.215c-.157-.08-.282-.177-.377-.29-.096-.113-.143-.255-.143-.425 0-.133.023-.256.07-.367.047-.112.117-.208.212-.288.096-.08.212-.142.35-.188.139-.044.301-.067.488-.067.207 0 .386.026.538.078.151.051.284.109.397.172.113.063.212.12.295.173.083.051.158.077.225.077s.124-.015.172-.045c.049-.03.091-.082.128-.155l.33-.635c-.253-.24-.56-.427-.92-.56-.36-.133-.753-.2-1.18-.2-.377 0-.712.058-1.005.175-.293.117-.54.272-.742.465-.202.193-.355.415-.46.665-.105.25-.158.507-.158.77 0 .33.047.608.143.832.095.225.22.413.377.563.157.15.335.272.535.365.2.093.403.173.61.24.207.067.41.128.61.185.2.057.378.126.535.207.157.082.282.183.377.303.096.12.143.275.143.465 0 .34-.105.6-.315.783-.21.181-.507.272-.89.272-.25 0-.464-.034-.642-.102-.179-.069-.334-.145-.465-.228-.132-.083-.246-.16-.343-.227-.097-.069-.187-.103-.27-.103-.063 0-.12.016-.172.047-.052.032-.096.071-.133.118l-.39.645c.14.143.3.273.477.39.179.117.37.217.575.3.206.083.42.148.643.193.223.044.45.067.68.067zM40.571 12c1.627 0 2.573 1.839 1.628 3.162l-8.572 12c-.174.244-.389.435-.627.572L33 35H39.5c.276 0 .5.224.5.5v1c0 .276-.224.5-.5.5h-15c-.276 0-.5-.224-.5-.5v-1c0-.276.224-.5.5-.5h6.499v-7.266c-.194-.112-.373-.26-.527-.443l-.1-.129-8.57-12c-.946-1.323 0-3.162 1.627-3.162zM37 18.999H26.999L32 26l5-7.001zM23.429 14l2.142 2.999h12.858L40.571 14H23.43z"/>
    </g>
</svg>
