<svg xmlns="http://www.w3.org/2000/svg" width="63" height="63" viewBox="0 0 63 63">
    <g fill="none" fill-rule="evenodd">
        <rect width="61" height="61" x="1" y="1" fill="#FFF" stroke="#FADA90" stroke-width="2" rx="12"/>
        <path fill="#FADA90" fill-rule="nonzero" d="M12.3 53c.42 0 .793-.053 1.12-.16.327-.107.602-.254.825-.443.223-.188.393-.412.51-.672.117-.26.175-.543.175-.85 0-.85-.497-1.387-1.49-1.61.223-.077.416-.17.578-.28.161-.11.294-.233.4-.367.105-.136.182-.28.232-.436.05-.154.075-.317.075-.487 0-.297-.05-.563-.15-.8-.1-.237-.257-.438-.473-.605-.215-.167-.49-.295-.825-.385-.334-.09-.739-.135-1.212-.135H9.57V53h2.73zm-.31-4.1h-1.075v-2.09h1.15c.453 0 .787.08 1 .24.213.16.32.428.32.805 0 .363-.118.628-.355.795-.237.167-.583.25-1.04.25zm.29 3.05h-1.365v-2.12h1.36c.237 0 .438.023.605.07.167.047.303.114.41.203.107.088.185.194.235.32.05.124.075.265.075.422 0 .15-.022.292-.067.425-.045.133-.119.25-.22.35-.102.1-.237.18-.405.24-.169.06-.378.09-.628.09zm6.53-6.63c.093 0 .182-.017.265-.05.083-.033.157-.08.22-.14.063-.06.113-.13.15-.21.037-.08.055-.165.055-.255s-.018-.176-.055-.258c-.037-.081-.087-.153-.15-.214-.063-.062-.137-.111-.22-.148-.083-.037-.172-.055-.265-.055-.087 0-.17.018-.247.055-.079.037-.148.086-.208.148-.06.061-.108.133-.143.215-.035.081-.052.167-.052.257s.017.175.052.255c.035.08.083.15.143.21.06.06.13.107.207.14.079.033.161.05.248.05zm2.18 0c.093 0 .18-.017.263-.05.081-.033.152-.08.212-.14.06-.06.108-.13.143-.21.034-.08.052-.165.052-.255s-.018-.176-.052-.258c-.035-.081-.083-.153-.143-.214-.06-.062-.13-.111-.212-.148-.082-.037-.17-.055-.263-.055-.09 0-.176.018-.257.055-.082.037-.154.086-.216.148-.061.061-.11.133-.145.215-.035.081-.052.167-.052.257s.017.175.052.255c.035.08.084.15.145.21.062.06.134.107.216.14.081.033.167.05.257.05zM17.43 53c.113 0 .21-.032.288-.095.078-.063.13-.133.157-.21l.54-1.475h2.995l.54 1.475c.033.087.088.16.163.218.075.058.17.087.287.087h1.04l-2.84-7.23h-1.375L16.385 53h1.045zm3.635-2.73H18.76l.88-2.395c.043-.11.087-.238.133-.385.044-.147.09-.305.137-.475.047.17.094.328.142.472.049.145.093.271.133.378l.88 2.405zm6.93 2.81c.6 0 1.114-.097 1.543-.29.428-.193.789-.472 1.082-.835l-.53-.575c-.053-.057-.117-.085-.19-.085-.043 0-.083.01-.12.027-.037.019-.072.043-.105.073-.11.1-.22.184-.332.252-.112.069-.23.125-.355.168-.125.043-.262.075-.41.095-.149.02-.315.03-.498.03-.307 0-.593-.057-.86-.172-.267-.115-.498-.281-.695-.498-.197-.217-.352-.483-.467-.8-.116-.317-.173-.678-.173-1.085 0-.393.057-.747.172-1.063.116-.315.276-.582.48-.802.206-.22.45-.39.736-.508.285-.118.597-.177.937-.177.29 0 .53.03.717.09.189.06.345.125.468.195.123.07.225.135.305.195.08.06.158.09.235.09.073 0 .13-.015.173-.045.041-.03.075-.065.102-.105l.45-.625c-.287-.283-.63-.51-1.032-.683-.402-.171-.871-.257-1.408-.257-.55 0-1.052.09-1.508.273-.454.181-.845.435-1.172.762-.327.327-.58.716-.76 1.167-.18.452-.27.95-.27 1.493 0 .537.08 1.032.242 1.485.162.453.395.843.698 1.17.303.327.67.582 1.098.765.428.183.91.275 1.447.275zm6.03-.08v-3.18h.425c.153 0 .272.02.355.057.083.039.158.101.225.188l2.045 2.67c.053.087.12.153.197.197.079.045.198.068.358.068h1.19l-2.51-3.385c-.083-.113-.17-.207-.258-.28-.088-.073-.187-.13-.297-.17.08-.04.155-.092.225-.155s.143-.142.22-.235l2.435-3.005h-1.16c-.14 0-.256.02-.348.063-.091.041-.179.115-.262.222L34.87 48.58c-.06.077-.132.133-.215.168-.083.035-.188.052-.315.052h-.315v-3.035H32.68V53h1.345zm11.15 0v-1.075H41.97V49.88h2.525v-1.035H41.97V46.84h3.205v-1.07h-4.56V53h4.56zm3.555 0v-2.825h.575c.133 0 .234.018.303.055.068.037.13.098.187.185l1.52 2.315c.057.087.126.153.208.2.081.047.18.07.297.07h1.21l-1.81-2.67c-.123-.18-.27-.318-.44-.415.253-.08.48-.187.678-.32.198-.133.364-.288.5-.465.135-.177.238-.373.31-.59.071-.217.107-.447.107-.69 0-.307-.053-.587-.157-.843-.106-.255-.27-.474-.496-.657-.224-.183-.513-.326-.864-.428-.352-.101-.775-.152-1.268-.152h-2.205V53h1.345zm.84-3.79h-.84v-2.4h.86c.497 0 .866.098 1.107.295.242.197.363.478.363.845 0 .183-.03.352-.09.505-.06.153-.15.286-.273.398-.121.111-.276.199-.465.262-.188.063-.409.095-.662.095zM35.67 14.21c1.666-.391 3.406-.219 5.082.299.619.19 1.09.385 1.443.562 4.87 2.922 6.044 8.469 3.542 13.232-.78 1.486-2.016 2.903-3.586 4.152-.305.243-.616.473-.933.69l-.182.119.887.803c.413.367.45.999.084 1.412-.367.413-1 .45-1.412.083l-.728-.656-.643-.594-.483.231c-4.276 1.943-9.205 1.943-13.48 0l-.485-.231-.64.594-.73.656c-.412.367-1.044.33-1.41-.083-.368-.413-.33-1.045.083-1.412l.885-.803-.18-.118c-.158-.11-.315-.221-.47-.336l-.462-.354c-1.57-1.247-2.805-2.664-3.59-4.153-2.5-4.763-1.327-10.31 3.617-13.271l.343-.155c.268-.112.615-.24 1.027-.368 1.677-.518 3.419-.69 5.085-.298 1.22.287 2.32.869 3.255 1.773l.343.355.068.079.07-.08c.893-.986 1.958-1.645 3.149-2.006l.452-.122zm-3.672 11.748l-.081.13c-.284.435-.624.926-1.025 1.47-1.113 1.51-2.474 3.112-4.105 4.786l-.473.476.135.06c3.544 1.493 7.558 1.493 11.103 0l.134-.06-.472-.476c-1.427-1.465-2.647-2.874-3.676-4.216l-.43-.57c-.275-.374-.521-.723-.74-1.043l-.37-.557zm-4.122-9.8c-1.269-.299-2.67-.16-4.037.262-.509.157-.884.312-1.003.366-3.91 2.345-4.835 6.716-2.803 10.586.645 1.225 1.7 2.434 3.064 3.518.297.237.602.46.913.67l.444.288.49-.483c1.533-1.54 2.824-3.013 3.893-4.403l.445-.59c.598-.812 1.072-1.532 1.435-2.15l.147-.258-.108-.231-.111-.265c-.666-1.68-.72-3.495.14-5.262l.037-.074-.099-.132-.272-.318c-.726-.8-1.588-1.292-2.575-1.524zm12.286.262c-1.366-.422-2.766-.56-4.034-.263-.988.232-1.85.723-2.577 1.525-.096.106-.187.212-.273.318l-.1.132.038.074c.798 1.64.808 3.323.272 4.9l-.133.362-.079.191-.14.305.147.257c.363.619.838 1.339 1.436 2.15 1.15 1.562 2.587 3.234 4.338 4.993l.489.484.445-.288c.156-.105.31-.213.462-.325l.452-.345c1.366-1.086 2.42-2.295 3.061-3.516 2.033-3.872 1.109-8.243-2.728-10.548l-.314-.138c-.199-.08-.456-.174-.762-.268z"/>
    </g>
</svg>
