<svg xmlns="http://www.w3.org/2000/svg" width="63" height="63" viewBox="0 0 63 63">
    <g fill="none" fill-rule="evenodd">
        <rect width="61" height="61" x="1" y="1" fill="#FFF" stroke="#8CBAC2" stroke-width="2" rx="12"/>
        <path fill="#8CBAC2" fill-rule="nonzero" d="M41 13c1.105 0 2 .895 2 2v1.671c2.828.134 5.08 2.468 5.08 5.329 0 2.833-2.209 5.15-4.998 5.324l-.337.01h-.73c-.7 1.452-1.74 2.709-3.015 3.667L45 31v2c0 2.21-1.79 4-4 4H19c-2.21 0-4-1.79-4-4v-2h6c-2.429-1.823-4-4.728-4-8v-8c0-1.105.895-2 2-2h22zm2 20H17c0 1.026.772 1.871 1.767 1.987L19 35h22c1.026 0 1.871-.772 1.987-1.767L43 33zm-2-18H19v8c0 4.284 3.368 7.782 7.6 7.99l.4.01h6c4.284 0 7.782-3.368 7.99-7.6L41 23v-8zm2 3.676V23c0 .804-.095 1.586-.274 2.335h.019c1.841 0 3.334-1.493 3.334-3.335 0-1.745-1.34-3.177-3.047-3.323L43 18.676zM17.54 53.08c.6 0 1.114-.097 1.543-.29.428-.193.789-.472 1.082-.835l-.53-.575c-.053-.057-.117-.085-.19-.085-.043 0-.083.01-.12.027-.037.019-.072.043-.105.073-.11.1-.22.184-.332.252-.112.069-.23.125-.356.168-.125.043-.261.075-.41.095-.148.02-.314.03-.497.03-.307 0-.593-.057-.86-.172-.267-.115-.498-.281-.695-.498-.197-.217-.353-.483-.468-.8-.114-.317-.172-.678-.172-1.085 0-.393.058-.747.172-1.063.115-.315.275-.582.48-.802.206-.22.45-.39.735-.508s.598-.177.938-.177c.29 0 .53.03.718.09.188.06.344.125.467.195.123.07.225.135.305.195.08.06.158.09.235.09.073 0 .13-.015.172-.045.042-.03.076-.065.103-.105l.45-.625c-.287-.283-.63-.51-1.032-.683-.402-.171-.871-.257-1.408-.257-.55 0-1.053.09-1.508.273-.455.181-.845.435-1.172.762-.327.327-.58.716-.76 1.167-.18.452-.27.95-.27 1.493 0 .537.08 1.032.242 1.485.162.453.395.843.698 1.17.303.327.67.582 1.098.765.428.183.91.275 1.447.275zm4.985-.08c.113 0 .21-.032.288-.095.078-.063.13-.133.157-.21l.54-1.475h2.995l.54 1.475c.033.087.087.16.162.218.075.058.171.087.288.087h1.04l-2.84-7.23H24.32L21.48 53h1.045zm3.635-2.73h-2.305l.88-2.395c.043-.11.088-.238.133-.385.045-.147.09-.305.137-.475.047.17.094.328.143.472.048.145.092.271.132.378l.88 2.405zM31.635 53v-2.945h2.705V48.98h-2.705v-2.14h3.205v-1.07h-4.56V53h1.355zm7.635-7.745c.047 0 .087-.002.122-.005s.069-.01.1-.02c.032-.01.064-.023.096-.04.031-.017.065-.038.102-.065l1.48-1.08h-1.375c-.067 0-.123.002-.17.008-.047.005-.088.015-.125.03-.037.014-.072.035-.108.062-.035.027-.072.06-.112.1l-.98 1.01h.97zM41.455 53v-1.075H38.25V49.88h2.525v-1.035H38.25V46.84h3.205v-1.07h-4.56V53h4.56zm3.99.08c.4 0 .755-.06 1.065-.182.31-.122.573-.289.788-.5.215-.212.378-.46.49-.745.111-.285.167-.591.167-.918 0-.3-.047-.555-.142-.765-.096-.21-.221-.387-.378-.532-.157-.146-.335-.266-.535-.36-.2-.096-.404-.179-.612-.25-.209-.072-.413-.14-.613-.203s-.378-.135-.535-.215c-.157-.08-.282-.177-.377-.29-.096-.113-.143-.255-.143-.425 0-.133.023-.256.07-.367.047-.112.117-.208.213-.288.095-.08.211-.142.35-.188.138-.044.3-.067.487-.067.207 0 .386.026.538.078.151.051.284.109.397.172.113.063.212.12.295.173.083.051.158.077.225.077s.124-.015.172-.045c.049-.03.091-.082.128-.155l.33-.635c-.253-.24-.56-.427-.92-.56-.36-.133-.753-.2-1.18-.2-.377 0-.712.058-1.005.175-.293.117-.54.272-.742.465-.202.193-.355.415-.46.665-.105.25-.158.507-.158.77 0 .33.047.608.142.832.095.225.221.413.378.563.157.15.335.272.535.365.2.093.403.173.61.24.207.067.41.128.61.185.2.057.378.126.535.207.157.082.282.183.377.303.096.12.143.275.143.465 0 .34-.105.6-.315.783-.21.181-.507.272-.89.272-.25 0-.464-.034-.642-.102-.179-.069-.334-.145-.466-.228-.131-.083-.245-.16-.342-.227-.097-.069-.187-.103-.27-.103-.063 0-.12.016-.172.047-.052.032-.096.071-.133.118l-.39.645c.14.143.3.273.477.39.179.117.37.217.576.3.205.083.419.148.642.193.223.044.45.067.68.067z"/>
    </g>
</svg>
