<svg xmlns="http://www.w3.org/2000/svg" width="63" height="63" viewBox="0 0 63 63">
    <g fill="none" fill-rule="evenodd">
        <rect width="63" height="63" fill="#ADE2BC" rx="12"/>
        <path fill="#FFF" fill-rule="nonzero" d="M19.42 53v-1.075h-3.205V49.88h2.525v-1.035h-2.525V46.84h3.205v-1.07h-4.56V53h4.56zm3.99.08c.4 0 .755-.06 1.065-.182.31-.122.572-.289.787-.5.215-.212.379-.46.49-.745.112-.285.168-.591.168-.918 0-.3-.048-.555-.143-.765-.095-.21-.22-.387-.377-.532-.157-.146-.335-.266-.535-.36-.2-.096-.404-.179-.612-.25-.209-.072-.413-.14-.613-.203s-.378-.135-.535-.215c-.157-.08-.282-.177-.378-.29-.095-.113-.142-.255-.142-.425 0-.133.023-.256.07-.367.047-.112.117-.208.212-.288.095-.08.212-.142.35-.188.139-.044.301-.067.488-.067.207 0 .386.026.538.078.151.051.284.109.397.172.113.063.212.12.295.173.083.051.158.077.225.077s.124-.015.172-.045c.049-.03.091-.082.128-.155l.33-.635c-.253-.24-.56-.427-.92-.56-.36-.133-.753-.2-1.18-.2-.377 0-.712.058-1.005.175-.293.117-.54.272-.742.465-.202.193-.356.415-.46.665-.105.25-.158.507-.158.77 0 .33.047.608.143.832.095.225.22.413.377.563.157.15.335.272.535.365.2.093.403.173.61.24.207.067.41.128.61.185.2.057.378.126.535.207.157.082.282.183.377.303.096.12.143.275.143.465 0 .34-.105.6-.315.783-.21.181-.507.272-.89.272-.25 0-.464-.034-.642-.102-.179-.069-.334-.145-.465-.228-.132-.083-.246-.16-.343-.227-.097-.069-.187-.103-.27-.103-.063 0-.12.016-.172.047-.052.032-.096.071-.133.118l-.39.645c.14.143.3.273.477.39.179.117.37.217.575.3.206.083.42.148.643.193.223.044.45.067.68.067zm6.365 0c.4 0 .755-.06 1.065-.182.31-.122.573-.289.788-.5.215-.212.378-.46.49-.745.111-.285.167-.591.167-.918 0-.3-.047-.555-.142-.765-.096-.21-.221-.387-.378-.532-.157-.146-.335-.266-.535-.36-.2-.096-.404-.179-.613-.25-.208-.072-.412-.14-.612-.203s-.378-.135-.535-.215c-.157-.08-.282-.177-.377-.29-.096-.113-.143-.255-.143-.425 0-.133.023-.256.07-.367.047-.112.117-.208.213-.288.095-.08.211-.142.35-.188.138-.044.3-.067.487-.067.207 0 .386.026.538.078.151.051.284.109.397.172.113.063.212.12.295.173.083.051.158.077.225.077s.124-.015.173-.045c.048-.03.09-.082.127-.155l.33-.635c-.253-.24-.56-.427-.92-.56-.36-.133-.753-.2-1.18-.2-.377 0-.712.058-1.005.175-.293.117-.54.272-.742.465-.202.193-.355.415-.46.665-.105.25-.158.507-.158.77 0 .33.047.608.142.832.095.225.221.413.378.563.157.15.335.272.535.365.2.093.403.173.61.24.207.067.41.128.61.185.2.057.378.126.535.207.157.082.282.183.378.303.095.12.142.275.142.465 0 .34-.105.6-.315.783-.21.181-.507.272-.89.272-.25 0-.464-.034-.643-.102-.178-.069-.333-.145-.465-.228-.131-.083-.245-.16-.342-.227-.097-.069-.187-.103-.27-.103-.063 0-.12.016-.172.047-.052.032-.096.071-.133.118l-.39.645c.14.143.3.273.478.39.178.117.37.217.575.3.204.083.419.148.642.193.223.044.45.067.68.067zm9.1-.08v-1.075H35.67V49.88h2.525v-1.035H35.67V46.84h3.205v-1.07h-4.56V53h4.56zm3.35 0v-4.44c0-.087-.003-.183-.008-.288-.005-.105-.012-.21-.022-.317l3.78 4.815c.067.087.135.147.205.18.07.033.158.05.265.05h.695v-7.23h-1.185v4.395c0 .097.003.2.008.313.005.111.014.225.027.342l-3.795-4.835c-.037-.047-.07-.084-.1-.112-.03-.029-.06-.05-.093-.066-.031-.015-.067-.025-.107-.03-.04-.005-.09-.007-.15-.007h-.705V53h1.185zM30 12c.49 0 .9.354.984.82L31 13v8c0 1.56-1.19 2.84-2.711 2.986L28 24h-1v14c0 .552-.448 1-1 1-.49 0-.9-.354-.984-.82L25 38V24h-1c-1.56 0-2.84-1.19-2.986-2.711L21 21v-8c0-.552.448-1 1-1 .49 0 .9.354.984.82L23 13v8c0 .49.354.9.82.984L24 22h1v-9c0-.552.448-1 1-1 .49 0 .9.354.984.82L27 13v9h1c.49 0 .9-.354.984-.82L29 21v-8c0-.552.448-1 1-1zm9 0c.08 0 .16.01.234.028l.041.01.067.022.058.023.044.02.057.031.043.027.041.028.053.04.022.02c.049.043.093.09.133.141l.024.033.04.061.02.036c.011.02.022.04.031.06l.02.048c.008.017.014.035.02.053l.017.058c.006.02.011.041.015.062l.004.02.002.013.007.05L40 13v25c0 .552-.448 1-1 1-.49 0-.9-.354-.984-.82L38 38V24h-1c-1.56 0-2.84-1.19-2.986-2.711L34 21v-6c0-1.56 1.19-2.84 2.711-2.986L37 12h2zm-1 10v-8h-1c-.49 0-.9.354-.984.82L36 15v6c0 .49.354.9.82.984L37 22h1z"/>
    </g>
</svg>
