<svg xmlns="http://www.w3.org/2000/svg" width="63" height="63" viewBox="0 0 63 63">
    <g fill="none" fill-rule="evenodd">
        <rect width="63" height="63" fill="#FADA90" rx="12"/>
        <text fill="#FFF" font-family="Lato-Bold, Lato" font-size="10" font-weight="bold" letter-spacing="1">
            <tspan x="8.84" y="53">BÄCKER</tspan>
        </text>
        <path fill="#FFF" fill-rule="nonzero" d="M35.67 14.21c1.666-.391 3.406-.219 5.082.299.619.19 1.09.385 1.443.562 4.87 2.922 6.044 8.469 3.542 13.232-.78 1.486-2.016 2.903-3.586 4.152-.305.243-.616.473-.933.69l-.182.119.887.803c.413.367.45.999.084 1.412-.367.413-1 .45-1.412.083l-.728-.656-.643-.594-.483.231c-4.276 1.943-9.205 1.943-13.48 0l-.485-.231-.64.594-.73.656c-.412.367-1.044.33-1.41-.083-.368-.413-.33-1.045.083-1.412l.885-.803-.18-.118c-.158-.11-.315-.221-.47-.336l-.462-.354c-1.57-1.247-2.805-2.664-3.59-4.153-2.5-4.763-1.327-10.31 3.617-13.271l.343-.155c.268-.112.615-.24 1.027-.368 1.677-.518 3.419-.69 5.085-.298 1.22.287 2.32.869 3.255 1.773l.343.355.068.079.07-.08c.893-.986 1.958-1.645 3.149-2.006l.452-.122zm-3.672 11.748l-.081.13c-.284.435-.624.926-1.025 1.47-1.113 1.51-2.474 3.112-4.105 4.786l-.473.476.135.06c3.544 1.493 7.558 1.493 11.103 0l.134-.06-.472-.476c-1.427-1.465-2.647-2.874-3.676-4.216l-.43-.57c-.275-.374-.521-.723-.74-1.043l-.37-.557zm-4.122-9.8c-1.269-.299-2.67-.16-4.037.262-.509.157-.884.312-1.003.366-3.91 2.345-4.835 6.716-2.803 10.586.645 1.225 1.7 2.434 3.064 3.518.297.237.602.46.913.67l.444.288.49-.483c1.533-1.54 2.824-3.013 3.893-4.403l.445-.59c.598-.812 1.072-1.532 1.435-2.15l.147-.258-.108-.231-.111-.265c-.666-1.68-.72-3.495.14-5.262l.037-.074-.099-.132-.272-.318c-.726-.8-1.588-1.292-2.575-1.524zm12.286.262c-1.366-.422-2.766-.56-4.034-.263-.988.232-1.85.723-2.577 1.525-.096.106-.187.212-.273.318l-.1.132.038.074c.798 1.64.808 3.323.272 4.9l-.133.362-.079.191-.14.305.147.257c.363.619.838 1.339 1.436 2.15 1.15 1.562 2.587 3.234 4.338 4.993l.489.484.445-.288c.156-.105.31-.213.462-.325l.452-.345c1.366-1.086 2.42-2.295 3.061-3.516 2.033-3.872 1.109-8.243-2.728-10.548l-.314-.138c-.199-.08-.456-.174-.762-.268z"/>
    </g>
</svg>
