<?xml version="1.0" encoding="UTF-8" standalone="no"?>
<!DOCTYPE svg PUBLIC "-//W3C//DTD SVG 1.1//EN" "http://www.w3.org/Graphics/SVG/1.1/DTD/svg11.dtd">
<svg width="100%" height="100%" viewBox="0 0 20 20" version="1.1" xmlns="http://www.w3.org/2000/svg" xmlns:xlink="http://www.w3.org/1999/xlink" xml:space="preserve" xmlns:serif="http://www.serif.com/" style="fill-rule:evenodd;clip-rule:evenodd;stroke-linejoin:round;stroke-miterlimit:2;">
    <g transform="matrix(-1.54519,-5.37846e-05,4.33318e-05,-1.24489,27.365,22.745)">
        <path d="M6.931,11.034C6.931,11.034 7.53,11.777 7.856,12.182C7.97,12.323 7.97,12.552 7.856,12.694C7.746,12.831 7.61,12.999 7.496,13.14C7.37,13.297 7.165,13.297 7.039,13.14C6.551,12.535 5.416,11.126 4.929,10.521C4.802,10.365 4.802,10.11 4.929,9.953C5.416,9.349 6.551,7.939 7.039,7.335C7.165,7.178 7.37,7.178 7.496,7.335C7.602,7.466 7.728,7.622 7.833,7.753C7.96,7.91 7.96,8.164 7.833,8.321C7.503,8.731 6.931,9.441 6.931,9.441L17.32,9.441C17.406,9.441 17.488,9.483 17.549,9.558C17.609,9.634 17.643,9.736 17.643,9.842L17.643,10.633C17.643,10.739 17.609,10.841 17.549,10.917C17.488,10.992 17.406,11.034 17.32,11.034L6.931,11.034Z" style="fill:rgb(99,99,99);"/>
    </g>
</svg>
