<?xml version="1.0" encoding="UTF-8" standalone="no"?>
<!DOCTYPE svg PUBLIC "-//W3C//DTD SVG 1.1//EN" "http://www.w3.org/Graphics/SVG/1.1/DTD/svg11.dtd">
<svg width="50%" height="50%" viewBox="0 0 18 18" version="1.1" xmlns="http://www.w3.org/2000/svg" xmlns:xlink="http://www.w3.org/1999/xlink" xml:space="preserve" xmlns:serif="http://www.serif.com/" style="fill-rule:evenodd;clip-rule:evenodd;stroke-linejoin:round;stroke-miterlimit:2;">
    <path d="M8.75,0C13.53,0 17.5,1.985 17.5,4.75C17.5,5.48 17.224,6.154 16.73,6.752C17.228,7.356 17.5,8.032 17.5,8.75C17.5,9.504 17.205,10.2 16.679,10.813C17.209,11.433 17.5,12.13 17.5,12.873C17.5,15.637 13.53,17.623 8.75,17.623C3.97,17.623 0,15.637 0,12.873C0,12.131 0.29,11.433 0.822,10.813C0.295,10.199 0,9.503 0,8.75C0,8.033 0.272,7.357 0.77,6.752C0.276,6.154 0,5.48 0,4.75C0,1.985 3.97,0 8.75,0ZM15.543,11.793L15.385,11.893C13.77,12.897 11.384,13.5 8.75,13.5C6.03,13.5 3.571,12.857 1.958,11.793C1.651,12.152 1.5,12.517 1.5,12.873C1.5,14.526 4.693,16.123 8.75,16.123C12.807,16.123 16,14.526 16,12.873C16,12.517 15.849,12.151 15.543,11.793ZM15.607,7.748L15.561,7.78C13.948,8.852 11.481,9.5 8.75,9.5C5.993,9.5 3.504,8.84 1.892,7.749C1.63,8.082 1.5,8.42 1.5,8.75C1.5,10.404 4.693,12 8.75,12C12.807,12 16,10.404 16,8.75C16,8.42 15.87,8.082 15.607,7.748ZM8.75,1.5C4.693,1.5 1.5,3.096 1.5,4.75C1.5,6.404 4.693,8 8.75,8C12.807,8 16,6.404 16,4.75C16,3.096 12.807,1.5 8.75,1.5Z" style="fill:white;fill-rule:nonzero;"/>
</svg>
