<svg xmlns="http://www.w3.org/2000/svg" width="19" height="18" viewBox="0 0 19 18">
    <path fill="#F5AF0B" fill-rule="evenodd" d="M9.965 1.734c-.277-.202-.653-.202-.93 0L3.957 5.427v9.24c0 .437.355.792.792.792h1.583v-4.75c0-1.312 1.063-2.375 2.375-2.375h1.583c1.312 0 2.375 1.063 2.375 2.375v4.75h1.584c.437 0 .791-.355.791-.792v-9.24L9.965 1.734zm6.66 4.844l1.118.813c.353.257.848.179 1.106-.175.257-.353.178-.849-.175-1.106L10.897.454c-.834-.605-1.96-.605-2.794 0L.326 6.11c-.354.257-.431.753-.175 1.106.257.354.753.432 1.106.175l1.118-.813v8.089c0 1.312 1.063 2.375 2.375 2.375h9.5c1.312 0 2.375-1.063 2.375-2.375v-8.09zm-5.542 8.88v-4.75c0-.436-.355-.791-.792-.791H8.708c-.437 0-.791.355-.791.792v4.75h3.166z"/>
</svg>
