<svg xmlns="http://www.w3.org/2000/svg" width="14" height="18" viewBox="0 0 14 18">
    <path fill="#CDCDCD" fill-rule="evenodd" d="M6.75 1.5c-1.657 0-3 1.343-3 3v3h6v-3c0-1.657-1.343-3-3-3zm4.5 6v-3c0-2.485-2.015-4.5-4.5-4.5s-4.5 2.015-4.5 4.5v3C1.007 7.5 0 8.507 0 9.75v6C0 16.993 1.007 18 2.25 18h9c1.243 0 2.25-1.007 2.25-2.25v-6c0-1.243-1.007-2.25-2.25-2.25zm-9 1.5c-.414 0-.75.336-.75.75v6c0 .414.336.75.75.75h9c.414 0 .75-.336.75-.75v-6c0-.414-.336-.75-.75-.75h-9zm4.5 2.25c.414 0 .75.336.75.75v1.5c0 .414-.336.75-.75.75S6 13.914 6 13.5V12c0-.414.336-.75.75-.75z"/>
</svg>
