<?xml version="1.0" encoding="UTF-8" standalone="no"?>
<!DOCTYPE svg PUBLIC "-//W3C//DTD SVG 1.1//EN" "http://www.w3.org/Graphics/SVG/1.1/DTD/svg11.dtd">
<svg width="100%" height="100%" viewBox="0 0 18 18" version="1.1" xmlns="http://www.w3.org/2000/svg" xmlns:xlink="http://www.w3.org/1999/xlink" xml:space="preserve" xmlns:serif="http://www.serif.com/" style="fill-rule:evenodd;clip-rule:evenodd;stroke-linejoin:round;stroke-miterlimit:2;">
    <path d="M9,0C13.97,0 18,4.03 18,9C18,13.97 13.97,18 9,18C4.03,18 0,13.97 0,9C0,4.03 4.03,0 9,0ZM9,5.077C7.626,5.077 6.462,6.202 6.462,7.769C6.462,8.681 6.757,9.275 7.385,9.869C7.611,10.056 7.787,10.272 7.912,10.51C8.164,10.987 8.192,11.48 8.095,11.93C8.075,12.021 8.053,12.094 8.053,12.086C7.835,12.896 7.271,13.243 6.034,13.666L5.623,13.805C5.463,13.859 5.338,13.903 5.219,13.947C4.632,14.163 4.211,14.384 3.907,14.66C5.257,15.876 7.042,16.615 9,16.615C10.958,16.615 12.743,15.877 14.092,14.663C13.79,14.393 13.372,14.18 12.778,13.967C12.675,13.93 12.567,13.892 12.43,13.847L12.074,13.727C10.786,13.292 10.206,12.941 9.956,12.119C9.941,12.069 9.922,12 9.906,11.912C9.828,11.502 9.846,11.059 10.033,10.622C10.155,10.338 10.343,10.083 10.576,9.888C11.236,9.292 11.538,8.682 11.538,7.769C11.538,6.229 10.357,5.077 9,5.077ZM9,1.385C4.794,1.385 1.385,4.795 1.385,9C1.385,10.748 1.973,12.358 2.963,13.643C3.416,13.228 3.993,12.923 4.74,12.648C4.872,12.598 5.008,12.551 5.178,12.494L5.587,12.356C6.384,12.083 6.667,11.909 6.735,11.666L6.742,11.636C6.776,11.477 6.766,11.305 6.688,11.156C6.648,11.079 6.588,11.006 6.468,10.906C5.547,10.037 5.077,9.093 5.077,7.769C5.077,5.427 6.872,3.692 9,3.692C11.114,3.692 12.923,5.457 12.923,7.769C12.923,9.097 12.441,10.069 11.484,10.933C11.399,11.004 11.343,11.081 11.306,11.168C11.243,11.315 11.236,11.492 11.266,11.654L11.278,11.705C11.348,11.939 11.654,12.125 12.516,12.415L12.871,12.534C13.017,12.583 13.133,12.624 13.247,12.664C14.007,12.937 14.584,13.234 15.036,13.644C16.026,12.359 16.616,10.748 16.616,9C16.616,4.794 13.206,1.385 9,1.385Z" style="fill:white;fill-rule:nonzero;"/>
</svg>
