<svg xmlns="http://www.w3.org/2000/svg" width="18" height="18" viewBox="0 0 18 18">
    <path fill="#AEAEAE" d="M8.75 0c4.78 0 8.75 1.985 8.75 4.75 0 .73-.276 1.404-.77 2.002.498.604.77 1.28.77 1.998 0 .754-.295 1.45-.821 2.063.53.62.821 1.317.821 2.06 0 2.764-3.97 4.75-8.75 4.75-4.78 0-8.75-1.986-8.75-4.75 0-.742.29-1.44.822-2.06C.295 10.199 0 9.503 0 8.75c0-.717.272-1.393.77-1.998C.276 6.154 0 5.48 0 4.75 0 1.985 3.97 0 8.75 0zm6.793 11.793l-.158.1C13.77 12.897 11.384 13.5 8.75 13.5c-2.72 0-5.179-.643-6.792-1.707-.307.359-.458.724-.458 1.08 0 1.653 3.193 3.25 7.25 3.25S16 14.526 16 12.873c0-.356-.151-.722-.457-1.08zm.064-4.045l-.046.032C13.948 8.852 11.481 9.5 8.75 9.5c-2.757 0-5.246-.66-6.858-1.751-.262.333-.392.671-.392 1.001C1.5 10.404 4.693 12 8.75 12S16 10.404 16 8.75c0-.33-.13-.668-.393-1.002zM8.75 1.5C4.693 1.5 1.5 3.096 1.5 4.75S4.693 8 8.75 8 16 6.404 16 4.75 12.807 1.5 8.75 1.5z"/>
</svg>
