<svg xmlns="http://www.w3.org/2000/svg" width="16" height="12" viewBox="0 0 16 12">
    <path fill="#636363" fill-rule="evenodd" d="M.207 1.252C.533.512 1.213 0 2 0h12c.787 0 1.467.511 1.793 1.252.132.301.207.641.207.998v7.5c0 1.243-.895 2.25-2 2.25H2c-1.105 0-2-1.007-2-2.25v-7.5c0-.357.075-.697.207-.998zM2.06 1.5L7.68 4.95c.199.122.439.122.638 0l5.622-3.45H2.06zm12.608 1.264L8.958 6.266c-.597.367-1.319.367-1.916 0L1.333 2.764V9.75c0 .414.299.75.667.75h12c.368 0 .667-.336.667-.75V2.764z"/>
</svg>
