<svg xmlns="http://www.w3.org/2000/svg" width="16" height="16" viewBox="0 0 16 16">
    <path fill="#CDCDCD" fill-rule="evenodd" d="M10.738.634c.845-.845 2.216-.845 3.06 0L15.367 2.2c.845.845.845 2.216 0 3.061L5.263 15.366c-.406.406-.957.634-1.531.634H.722C.323 16 0 15.677 0 15.278v-3.01c0-.574.228-1.125.634-1.531L10.738.634zm2.04 1.02c-.282-.281-.738-.281-1.02 0L10.402 3.01l2.588 2.588 1.356-1.356c.281-.282.281-.738 0-1.02l-1.568-1.568zm-.809 4.964L9.382 4.031l-7.727 7.726c-.136.136-.212.32-.212.51v2.29h2.289c.192 0 .375-.076.51-.212l7.727-7.727z"/>
</svg>
