<svg xmlns="http://www.w3.org/2000/svg" width="18" height="18" viewBox="0 0 18 18">
    <path fill="#F5AF0B" fill-rule="evenodd" d="M9.44 2.628c-.262-.19-.618-.19-.881 0l-4.81 3.467v8.675c0 .41.337.743.75.743H6v-4.46c0-1.23 1.008-2.229 2.25-2.229h1.5c1.244 0 2.25.998 2.25 2.23v4.46h1.5c.415 0 .75-.334.75-.744V6.095L9.442 2.628zm6.31 4.548l1.059.763c.334.241.804.168 1.047-.164.244-.332.17-.797-.165-1.039l-7.367-5.31c-.79-.568-1.858-.568-2.648 0L.31 6.736c-.335.242-.409.707-.166 1.039.244.332.713.405 1.048.164l1.059-.763v7.594C2.25 16.002 3.257 17 4.5 17h9c1.243 0 2.25-.998 2.25-2.23V7.176zm-5.25 8.337v-4.46c0-.41-.336-.742-.75-.742h-1.5c-.414 0-.75.333-.75.743v4.46h3z"/>
</svg>
