<svg xmlns="http://www.w3.org/2000/svg" width="18" height="18" viewBox="0 0 18 18">
    <path fill="#F5AF0B" d="M9 0c4.97 0 9 4.03 9 9s-4.03 9-9 9-9-4.03-9-9 4.03-9 9-9zm0 5.077c-1.374 0-2.538 1.125-2.538 2.692 0 .912.295 1.506.923 2.1.226.187.402.403.527.641.252.477.28.97.183 1.42-.02.091-.042.164-.042.156-.218.81-.782 1.157-2.019 1.58l-.411.139c-.16.054-.285.098-.404.142-.587.216-1.008.437-1.312.713 1.35 1.216 3.135 1.955 5.093 1.955 1.958 0 3.743-.738 5.092-1.952-.302-.27-.72-.483-1.314-.696-.103-.037-.211-.075-.348-.12l-.356-.12c-1.288-.435-1.868-.786-2.118-1.608-.015-.05-.034-.119-.05-.207-.078-.41-.06-.853.127-1.29.122-.284.31-.539.543-.734.66-.596.962-1.206.962-2.119 0-1.54-1.181-2.692-2.538-2.692zm0-3.692c-4.206 0-7.615 3.41-7.615 7.615 0 1.748.588 3.358 1.578 4.643.453-.415 1.03-.72 1.777-.995.132-.05.268-.097.438-.154l.409-.138c.797-.273 1.08-.447 1.148-.69l.007-.03c.034-.159.024-.331-.054-.48-.04-.077-.1-.15-.22-.25-.921-.869-1.391-1.813-1.391-3.137 0-2.342 1.795-4.077 3.923-4.077 2.114 0 3.923 1.765 3.923 4.077 0 1.328-.482 2.3-1.439 3.164-.085.071-.141.148-.178.235-.063.147-.07.324-.04.486l.012.051c.07.234.376.42 1.238.71l.355.119c.146.049.262.09.376.13.76.273 1.337.57 1.789.98.99-1.285 1.58-2.896 1.58-4.644 0-4.206-3.41-7.615-7.616-7.615z"/>
</svg>
