<svg xmlns="http://www.w3.org/2000/svg" width="44" height="22" viewBox="0 0 44 22">
    <g fill="none" fill-rule="evenodd">
        <rect width="44" height="22" fill="#C20039" rx="10"/>
        <path fill="#FFF" fill-rule="nonzero" d="M13.664 14.953v-1.221H10.48V7H9v7.953h4.664zm4.156 0V7h-1.485v7.953h1.485zm7.022 0L28.054 7H26.86c-.124 0-.229.035-.313.104-.085.07-.143.147-.176.231l-1.865 4.852c-.124.322-.229.694-.313 1.116-.052-.209-.106-.408-.162-.597-.057-.189-.117-.362-.18-.52l-1.87-4.85c-.04-.1-.1-.18-.18-.243-.081-.062-.186-.093-.314-.093h-1.194l3.212 7.953h1.337zm10.525 0v-1.182h-3.525v-2.25h2.777v-1.139h-2.777V8.178h3.525V7h-5.016v7.953h5.016z"/>
    </g>
</svg>
