<svg xmlns="http://www.w3.org/2000/svg" width="18" height="18" viewBox="0 0 18 18">
    <g fill="none" fill-rule="evenodd">
        <path stroke="#636363" stroke-width="1.5" d="M16.905 2.181v-.003c-.139-.518-.546-.927-1.061-1.067-.461-.127-1.62-.227-3.194-.29-.798-.03-1.654-.05-2.51-.062-.3-.004-.578-.006-.828-.008L9 .75l-.312.001c-.25.001-.529.004-.828.008-.857.01-1.713.03-2.511.06-1.576.06-2.736.156-3.192.277-.502.139-.924.566-1.06 1.078-.103.392-.185.97-.244 1.677C.808 4.394.78 4.98.763 5.564c-.01.352-.013.624-.013.777 0 .152.003.423.013.773.016.583.044 1.165.089 1.705.059.714.14 1.297.243 1.685.139.518.546.927 1.06 1.066.466.128 1.622.228 3.191.29.798.031 1.655.051 2.513.063.3.004.579.006.829.008h.624c.25-.002.528-.004.828-.008.857-.01 1.713-.03 2.511-.06 1.576-.06 2.736-.156 3.196-.278.512-.139.92-.548 1.057-1.062.102-.392.184-.97.243-1.677.045-.543.074-1.128.09-1.713.01-.352.013-.624.013-.78v-.01c.002-.664-.022-1.584-.096-2.482-.059-.71-.142-1.29-.249-1.68zm1.448-.392v.002-.004.002z" transform="translate(0 3)"/>
        <path fill="#636363" d="M6.955 9L11.864 6.341 6.955 3.682z" transform="translate(0 3)"/>
    </g>
</svg>
