<?xml version="1.0" encoding="UTF-8" standalone="no"?>
<!DOCTYPE svg PUBLIC "-//W3C//DTD SVG 1.1//EN" "http://www.w3.org/Graphics/SVG/1.1/DTD/svg11.dtd">
<svg width="100%" height="100%" viewBox="0 0 19 18" version="1.1" xmlns="http://www.w3.org/2000/svg" xmlns:xlink="http://www.w3.org/1999/xlink" xml:space="preserve" xmlns:serif="http://www.serif.com/" style="fill-rule:evenodd;clip-rule:evenodd;stroke-linejoin:round;stroke-miterlimit:2;">
    <path d="M9.965,1.734C9.688,1.532 9.312,1.532 9.035,1.734L3.957,5.427L3.957,14.667C3.957,15.104 4.312,15.459 4.749,15.459L6.332,15.459L6.332,10.709C6.332,9.397 7.395,8.334 8.707,8.334L10.29,8.334C11.602,8.334 12.665,9.397 12.665,10.709L12.665,15.459L14.249,15.459C14.686,15.459 15.04,15.104 15.04,14.667L15.04,5.427L9.965,1.734ZM16.625,6.578L17.743,7.391C18.096,7.648 18.591,7.57 18.849,7.216C19.106,6.863 19.027,6.367 18.674,6.11L10.897,0.454C10.063,-0.151 8.937,-0.151 8.103,0.454L0.326,6.11C-0.028,6.367 -0.105,6.863 0.151,7.216C0.408,7.57 0.904,7.648 1.257,7.391L2.375,6.578L2.375,14.667C2.375,15.979 3.438,17.042 4.75,17.042L14.25,17.042C15.562,17.042 16.625,15.979 16.625,14.667L16.625,6.577L16.625,6.578ZM11.083,15.458L11.083,10.708C11.083,10.272 10.728,9.917 10.291,9.917L8.708,9.917C8.271,9.917 7.917,10.272 7.917,10.709L7.917,15.459L11.083,15.459L11.083,15.458Z" style="fill:white;"/>
</svg>
