<svg xmlns="http://www.w3.org/2000/svg" width="18" height="18" viewBox="0 0 18 18">
    <path fill="#636363" fill-rule="evenodd" d="M5.296.057c1.657-.074 5.759-.077 7.415 0 3.388.156 5.084 2.072 5.232 5.232.073 1.657.078 5.758 0 7.415-.123 2.677-1.382 4.167-3.049 4.814-1.1.426-2.175.468-4.885.473H9.003c-3.38 0-5.746.227-7.484-1.51-1.705-1.705-1.51-3.983-1.51-7.484 0-3.42-.221-5.753 1.51-7.484C2.555.477 3.839.125 5.296.057zM8.97 1.599c-2.406 0-2.687.011-3.642.045-4.159.213-3.734 3.197-3.734 7.341 0 3.062-.228 5.082 1.035 6.34.96.962 2.232 1.04 5.047 1.045H9.66c3.164.007 4.61.027 5.671-1.034 1.115-1.12 1.045-2.633 1.046-6.34 0-2.401-.01-2.686-.053-3.635-.188-4.158-3.324-3.74-7.32-3.74zm.032 2.78c2.55 0 4.619 2.066 4.619 4.618 0 2.55-2.067 4.619-4.62 4.619-2.549 0-4.618-2.067-4.618-4.619 0-2.55 2.067-4.619 4.619-4.619zm0 1.62C7.347 6 6.005 7.341 6.005 8.997c0 1.656 1.341 2.998 2.998 2.998 1.657 0 2.998-1.342 2.998-2.998C12 7.341 10.659 6 9.003 6zm4.802-2.882c.596 0 1.079.483 1.079 1.08 0 .595-.483 1.078-1.08 1.078-.596 0-1.079-.483-1.079-1.079s.483-1.079 1.08-1.079z"/>
</svg>
