<svg xmlns="http://www.w3.org/2000/svg" width="169" height="42" viewBox="0 0 169 42">
    <g fill="none" fill-rule="evenodd">
        <path fill="#F5AF0B" d="M63.916 32.984c-.493 0-.916-.422-.916-.915V9.625c0-.493.423-.917.916-.917h1.41c.492 0 .915.424.915.917v20.54h7.364c.493 0 .916.422.916.916v.988c0 .493-.423.915-.916.915h-9.69zM86.479 30.87c4.017 0 5.496-3.171 5.496-9.9 0-6.8-1.48-10.076-5.496-10.076s-5.531 3.17-5.531 9.9c0 6.8 1.515 10.076 5.53 10.076m.036 2.572c-6.025 0-9.055-4.123-9.055-12.508 0-8.21 3.136-12.683 8.985-12.683 5.849 0 9.02 4.368 9.02 12.506 0 8.421-2.925 12.685-8.95 12.685M109.243 33.442c-6.553 0-9.407-4.37-9.407-12.509 0-7.821 2.678-12.682 9.407-12.682 2.008 0 3.735.457 5.073 1.338.423.282.529.846.282 1.268l-.563.846c-.282.422-.846.564-1.269.283-1.021-.6-2.15-.987-3.523-.987-4.686 0-5.848 3.064-5.848 9.795 0 6.799 1.162 9.9 5.954 9.9 1.55 0 2.748-.53 3.805-1.233.422-.283.986-.178 1.268.245l.529.846c.282.424.176.986-.247 1.269-1.48.951-3.276 1.621-5.461 1.621M125.863 18.996l-1.233 4.193h5.919l-1.163-4.193c-1.056-3.77-1.339-5.143-1.69-7.01h-.071c-.353 1.937-.67 3.31-1.762 7.01zm-6.483 13.987c-.457 0-.774-.422-.633-.88l6.94-22.55c.176-.528.67-.88 1.198-.88h1.762c.528 0 1.02.352 1.162.88l6.8 22.55c.14.458-.211.88-.67.88h-1.726c-.528 0-1.021-.352-1.162-.88l-1.727-6.166h-7.504l-1.798 6.166c-.14.528-.633.88-1.162.88h-1.48zM141.95 32.984c-.493 0-.915-.422-.915-.915V9.625c0-.493.422-.917.915-.917h1.41c.493 0 .915.424.915.917v20.54h7.364c.494 0 .916.422.916.916v.988c0 .493-.422.915-.916.915h-9.689zM158.08 32.984c-.493 0-.916-.422-.916-.915V9.625c0-.493.423-.917.916-.917h1.41c.492 0 .916.424.916.917v20.54h7.363c.493 0 .916.422.916.916v.988c0 .493-.423.915-.916.915h-9.689z"/>
        <path fill="#FFAB4A" d="M115.757.89c.025-.007.05-.01.075-.02.034-.012.064-.031.097-.047-.057.027-.114.05-.172.068M115.973.915c-.086.019-.173.032-.261.033.087-.001.175-.014.261-.033M115.807.894l.07.02-.07-.02"/>
        <g>
            <path fill="#F5AF0B" d="M32.282 14.335c.355-1.726 1.023-3.263 2.588-4.252.223-.14.144-.265-.014-.381-.13-.096-.288-.113-.441-.14-.9-.163-1.774-.055-2.61.303-1.772.759-2.95 2.094-3.64 3.866-.542 1.388-.644 2.806-.123 4.23.268.735.703 1.356 1.304 1.81.262.141.495.16.735.045.202-.098.378-.235.534-.392.945-.95 1.384-2.123 1.482-3.439.042-.552.074-1.106.185-1.65M35.595 11.08c-.21.142-.412.303-.596.477-.93.887-1.313 2.031-1.523 3.257-.123.71-.086 1.44-.237 2.147-.243 1.135-.652 2.188-1.482 3.038-.134.138-.363.264-.258.49.11.233.356.12.54.096 2.105-.284 3.597-1.458 4.663-3.24.51-.877.821-1.819.912-2.83.097-1.088-.085-2.125-.613-3.09-.373-.682-.756-.777-1.406-.344" transform="translate(0 .913)"/>
            <path fill="#F5AF0B" d="M45.187 20.383c-1.974 5.424-14.324 13.376-20.294 16.792-2.379-6.454-6.728-20.484-4.753-25.91 1.217-3.344 3.665-6.014 6.891-7.52 1.792-.834 3.704-1.256 5.624-1.256 1.538 0 3.08.271 4.566.812 6.906 2.513 10.48 10.176 7.966 17.082M38.073.963C34.103-.483 29.81-.295 25.98 1.49c-3.829 1.786-6.733 4.955-8.178 8.925-2.88 7.913 4.945 28.146 5.28 29.003.13.334.397.596.734.718.138.05.282.075.425.075.207 0 .413-.052.598-.152.807-.443 19.808-10.913 22.688-18.825C50.509 13.04 46.268 3.945 38.073.963" transform="translate(0 .913)"/>
            <path fill="#FADA90" d="M23.081 39.419c-.076-.195-.542-1.402-1.18-3.232-6.348-3.79-16.805-10.85-18.607-15.804C.78 13.477 4.354 5.815 11.259 3.3c1.487-.54 3.029-.81 4.566-.81 1.92 0 3.832.42 5.624 1.256.213.1.414.217.62.327.67-.602 1.4-1.136 2.171-1.62-.558-.35-1.132-.68-1.74-.963C18.674-.294 14.378-.483 10.409.962 2.212 3.945-2.028 13.04.955 21.233c2.88 7.912 21.88 18.382 22.688 18.825.021.011.045.016.068.026-.286-.135-.514-.368-.63-.665" transform="translate(0 .913)"/>
            <path fill="#FADA90" d="M14.884 16.96c-.15-.707-.114-1.435-.236-2.146-.21-1.226-.594-2.37-1.524-3.257-.184-.175-.385-.336-.596-.476-.65-.434-1.034-.338-1.406.344-.528.965-.71 2.002-.612 3.09.09 1.011.4 1.952.911 2.83 1.067 1.781 2.558 2.955 4.663 3.24.185.025.43.137.54-.096.106-.227-.123-.352-.258-.49-.83-.85-1.238-1.904-1.482-3.038M16.318 9.865c-.836-.358-1.71-.466-2.61-.304-.152.027-.311.046-.44.14-.16.117-.238.242-.015.382 1.565.99 2.233 2.526 2.588 4.252.112.543.143 1.098.185 1.65.098 1.315.537 2.488 1.482 3.439l.019.016c-.477-3.387-.535-6.518.192-8.758-.42-.318-.882-.595-1.4-.817" transform="translate(0 .913)"/>
        </g>
    </g>
</svg>
