<svg xmlns="http://www.w3.org/2000/svg" width="18" height="18" viewBox="0 0 18 18">
    <path fill="#636363" d="M13.343 17.229c0 .426-.307.771-.686.771h-8.96C2.221 18 1 16.75 1 15.171V2.83C1 1.249 2.221 0 3.697 0h8.96c.379 0 .686.345.686.771 0 .426-.307.772-.686.772h-8.96c-.746 0-1.326.593-1.326 1.286V15.17c0 .693.58 1.286 1.326 1.286h8.96c.379 0 .686.346.686.772zm4.477-7.821l-.075.086-4.114 4.114c-.301.302-.79.302-1.09 0-.275-.274-.3-.702-.075-1.004l.074-.087 2.796-2.797H7.634c-.232 0-.424-.285-.458-.657l-.005-.114c0-.388.172-.708.395-.763l.068-.009h7.703L12.54 5.38c-.274-.274-.299-.703-.074-1.005l.074-.086c.274-.274.703-.299 1.005-.075l.086.075 4.114 4.114c.274.274.3.703.075 1.005z"/>
</svg>
