<?xml version="1.0" encoding="utf-8"?>
<!-- Generator: Adobe Illustrator 24.0.1, SVG Export Plug-In . SVG Version: 6.00 Build 0)  -->
<svg version="1.1" id="Ebene_1" xmlns="http://www.w3.org/2000/svg" xmlns:xlink="http://www.w3.org/1999/xlink" x="0px" y="0px"
	 viewBox="0 0 387.32 100.65" style="enable-background:new 0 0 387.32 100.65;" xml:space="preserve">
<style type="text/css">
	.st0{fill:#F5AF0B;}
	.st1{fill:#D24557;}
	.st2{fill:#1D1D1D;}
	.st3{fill:#FDC788;}
	.st4{fill:#E5EFED;}
	.st5{fill:#FFAB4A;}
	.st6{fill:#A0DFDD;}
	.st7{fill:none;stroke:#000000;stroke-width:5;stroke-miterlimit:10;}
	.st8{clip-path:url(#SVGID_2_);fill:#E5EFED;}
	.st9{clip-path:url(#SVGID_4_);fill:#FCE3D9;}
	.st10{clip-path:url(#SVGID_6_);fill:#556784;}
	.st11{fill:none;stroke:#FFAB4A;stroke-width:4;stroke-linecap:round;stroke-linejoin:round;stroke-miterlimit:10;}
	.st12{fill:none;stroke:#000000;stroke-width:5;stroke-linecap:round;stroke-linejoin:round;stroke-miterlimit:10;}
	.st13{clip-path:url(#SVGID_8_);fill:#FCE3D9;}
	.st14{fill-rule:evenodd;clip-rule:evenodd;fill:#FFAB4A;}
	.st15{fill:none;stroke:#FFAB4A;stroke-miterlimit:10;}
	.st16{fill:none;stroke:#FFAB4A;stroke-width:3;stroke-miterlimit:10;}
	.st17{fill:none;stroke:#FFAB4A;stroke-width:2;stroke-linecap:round;stroke-miterlimit:10;}
	.st18{clip-path:url(#SVGID_10_);fill:#C20039;}
	.st19{clip-path:url(#SVGID_12_);fill:#D24557;}
	.st20{clip-path:url(#SVGID_14_);fill:#8E002A;}
	.st21{clip-path:url(#SVGID_16_);fill:#61A1AC;}
	.st22{clip-path:url(#SVGID_18_);fill:#8CBAC2;}
	.st23{clip-path:url(#SVGID_20_);fill:#277F8E;}
	.st24{clip-path:url(#SVGID_22_);fill:#A1D9B1;}
	.st25{clip-path:url(#SVGID_24_);fill:#BAE3C6;}
	.st26{clip-path:url(#SVGID_26_);fill:#769E81;}
	.st27{clip-path:url(#SVGID_28_);fill:#F7C44D;}
	.st28{clip-path:url(#SVGID_30_);fill:#FADA90;}
	.st29{clip-path:url(#SVGID_32_);fill:#F5AF0B;}
	.st30{clip-path:url(#SVGID_34_);fill:#C20039;}
	.st31{clip-path:url(#SVGID_36_);fill:#D24557;}
	.st32{clip-path:url(#SVGID_38_);fill:#8E002A;}
	.st33{clip-path:url(#SVGID_40_);fill:#61A1AC;}
	.st34{clip-path:url(#SVGID_42_);fill:#8CBAC2;}
	.st35{clip-path:url(#SVGID_44_);fill:#277F8E;}
	.st36{clip-path:url(#SVGID_46_);fill:#A1D9B1;}
	.st37{clip-path:url(#SVGID_48_);fill:#BAE3C6;}
	.st38{clip-path:url(#SVGID_50_);fill:#769E81;}
	.st39{clip-path:url(#SVGID_52_);fill:#F7C44D;}
	.st40{clip-path:url(#SVGID_54_);fill:#FADA90;}
	.st41{clip-path:url(#SVGID_56_);fill:#F5AF0B;}
	.st42{fill:#FFFFFF;}
	.st43{fill:#FADA90;}
	.st44{fill:#C20039;}
	.st45{fill:#8CBAC2;}
	.st46{fill:#BAE3C6;}
	.st47{fill:none;stroke:#979797;stroke-miterlimit:10;}
	.st48{fill:none;stroke:#FFFFFF;stroke-linecap:round;stroke-miterlimit:10;}
	.st49{fill:none;stroke:#FFFFFF;stroke-linecap:round;stroke-linejoin:round;stroke-miterlimit:10;}
	.st50{fill:none;stroke:#FFFFFF;stroke-miterlimit:10;}
	.st51{fill:none;stroke:#000000;stroke-miterlimit:10;}
	.st52{fill:#8E002A;}
	.st53{fill:none;}
	.st54{fill:url(#SVGID_57_);}
	.st55{clip-path:url(#SVGID_59_);fill:#1D1D1D;}
	.st56{fill:#F6B827;}
</style>
<g>
	<g>
		<path class="st0" d="M58.55,46.37c0.06-0.02,0.12-0.03,0.17-0.05c0.08-0.03,0.15-0.07,0.22-0.11
			C58.81,46.28,58.68,46.33,58.55,46.37z"/>
		<path class="st0" d="M59.04,46.26c-0.2,0.04-0.39,0.07-0.6,0.07C58.65,46.33,58.84,46.3,59.04,46.26z"/>
		<path class="st0" d="M58.66,46.28c0.05,0.02,0.11,0.03,0.16,0.04C58.77,46.31,58.72,46.29,58.66,46.28z"/>
		<g>
			<path class="st0" d="M78.23,36.34c0.86-4.18,2.48-7.91,6.27-10.3c0.54-0.34,0.35-0.64-0.04-0.93c-0.31-0.23-0.7-0.27-1.07-0.34
				c-2.18-0.39-4.3-0.13-6.32,0.74c-4.29,1.84-7.15,5.08-8.82,9.37c-1.31,3.36-1.56,6.8-0.3,10.25c0.65,1.78,1.7,3.28,3.16,4.38
				c0.64,0.34,1.2,0.39,1.78,0.11c0.49-0.24,0.92-0.57,1.29-0.95c2.29-2.3,3.35-5.15,3.59-8.33C77.89,39,77.96,37.66,78.23,36.34z"
				/>
			<path class="st0" d="M86.26,28.45c-0.51,0.34-1,0.73-1.44,1.15c-2.25,2.15-3.18,4.92-3.69,7.89c-0.3,1.72-0.21,3.49-0.57,5.2
				c-0.59,2.75-1.58,5.3-3.59,7.36c-0.33,0.33-0.88,0.64-0.62,1.19c0.26,0.56,0.86,0.29,1.31,0.23c5.1-0.69,8.72-3.53,11.3-7.85
				c1.24-2.13,1.99-4.41,2.21-6.86c0.24-2.64-0.2-5.15-1.48-7.49C88.77,27.63,87.84,27.4,86.26,28.45z"/>
			<path class="st0" d="M92.27,3.93c-9.62-3.5-20.03-3.05-29.31,1.28c-9.28,4.33-16.32,12.01-19.82,21.63
				c-6.98,19.17,11.98,68.21,12.8,70.29c0.32,0.81,0.96,1.44,1.78,1.74c0.33,0.12,0.68,0.18,1.03,0.18c0.5,0,1-0.13,1.45-0.37
				c1.96-1.07,48-26.45,54.98-45.62C122.4,33.2,112.13,11.16,92.27,3.93z M109.51,50.99c-4.78,13.15-34.71,32.42-49.18,40.69
				c-5.76-15.64-16.3-49.64-11.52-62.79c2.95-8.11,8.88-14.58,16.7-18.22c4.34-2.02,8.98-3.04,13.63-3.04
				c3.72,0,7.46,0.65,11.07,1.96C106.94,15.69,115.6,34.26,109.51,50.99z"/>
		</g>
		<g>
			<path class="st43" d="M55.94,97.13c-0.18-0.47-1.31-3.4-2.86-7.83C37.69,80.11,12.35,63,7.98,50.99
				c-6.09-16.74,2.57-35.3,19.3-41.4c3.6-1.31,7.34-1.96,11.07-1.96c4.65,0,9.29,1.02,13.63,3.04c0.52,0.24,1,0.53,1.5,0.79
				c1.62-1.46,3.39-2.75,5.26-3.93C57.39,6.69,56,5.9,54.53,5.21c-9.28-4.32-19.69-4.78-29.31-1.28C5.36,11.16-4.91,33.2,2.31,53.06
				C9.29,72.23,55.34,97.6,57.3,98.68c0.05,0.03,0.11,0.04,0.16,0.06C56.77,98.41,56.22,97.85,55.94,97.13z"/>
			<path class="st43" d="M36.07,42.7c-0.37-1.71-0.28-3.48-0.57-5.2c-0.51-2.97-1.44-5.74-3.69-7.89c-0.44-0.42-0.93-0.81-1.44-1.15
				c-1.57-1.05-2.5-0.82-3.41,0.83c-1.28,2.34-1.72,4.85-1.48,7.49c0.22,2.45,0.97,4.73,2.21,6.86c2.58,4.32,6.2,7.16,11.3,7.85
				c0.45,0.06,1.04,0.33,1.31-0.23c0.26-0.55-0.3-0.85-0.62-1.19C37.65,48.01,36.66,45.45,36.07,42.7z"/>
			<path class="st43" d="M39.55,25.51c-2.03-0.87-4.14-1.13-6.32-0.74c-0.37,0.07-0.75,0.11-1.07,0.34
				c-0.39,0.28-0.58,0.58-0.04,0.93c3.79,2.4,5.41,6.12,6.27,10.3c0.27,1.32,0.35,2.66,0.45,4c0.24,3.19,1.3,6.03,3.59,8.33
				c0.01,0.01,0.03,0.02,0.04,0.04c-1.16-8.21-1.29-15.8,0.47-21.22C41.92,26.72,40.8,26.04,39.55,25.51z"/>
		</g>
	</g>
	<g>
		<g>
			<path class="st0" d="M148.69,56.33c-1.12,0-2.09-0.96-2.09-2.08V3.13c0-1.12,0.96-2.09,2.09-2.09h3.21
				c1.12,0,2.09,0.96,2.09,2.09v46.78h16.77c1.12,0,2.09,0.96,2.09,2.09v2.25c0,1.12-0.96,2.08-2.09,2.08H148.69z"/>
			<path class="st0" d="M200.16,57.38c-13.72,0-20.62-9.39-20.62-28.49C179.53,10.19,186.68,0,200,0c13.32,0,20.54,9.95,20.54,28.49
				C220.54,47.67,213.88,57.38,200.16,57.38z M200.08,51.52c9.15,0,12.52-7.22,12.52-22.55c0-15.49-3.37-22.95-12.52-22.95
				c-9.15,0-12.6,7.22-12.6,22.55C187.48,44.06,190.93,51.52,200.08,51.52z"/>
			<path class="st0" d="M251.93,57.38c-14.93,0-21.43-9.95-21.43-28.49C230.5,11.07,236.6,0,251.93,0c4.57,0,8.51,1.04,11.56,3.05
				c0.96,0.64,1.2,1.93,0.64,2.89l-1.28,1.93c-0.64,0.96-1.93,1.29-2.89,0.64c-2.33-1.36-4.9-2.25-8.03-2.25
				c-10.67,0-13.32,6.98-13.32,22.31c0,15.49,2.65,22.55,13.56,22.55c3.53,0,6.26-1.21,8.67-2.81c0.96-0.64,2.25-0.4,2.89,0.56
				l1.2,1.93c0.64,0.96,0.4,2.25-0.56,2.89C261,55.85,256.9,57.38,251.93,57.38z"/>
			<path class="st0" d="M275.02,56.33c-1.04,0-1.77-0.96-1.44-2.01l15.81-51.36c0.4-1.2,1.52-2.01,2.73-2.01h4.01
				c1.2,0,2.33,0.8,2.65,2.01l15.49,51.36c0.32,1.04-0.48,2.01-1.53,2.01h-3.93c-1.2,0-2.33-0.8-2.65-2.01l-3.93-14.04h-17.09
				l-4.09,14.04c-0.32,1.2-1.44,2.01-2.65,2.01H275.02z M289.79,24.47l-2.81,9.55h13.48l-2.65-9.55
				c-2.41-8.58-3.05-11.71-3.85-15.97h-0.16C293,12.92,292.27,16.05,289.79,24.47z"/>
			<path class="st0" d="M326.43,56.33c-1.12,0-2.09-0.96-2.09-2.08V3.13c0-1.12,0.96-2.09,2.09-2.09h3.21
				c1.12,0,2.09,0.96,2.09,2.09v46.78h16.77c1.12,0,2.09,0.96,2.09,2.09v2.25c0,1.12-0.96,2.08-2.09,2.08H326.43z"/>
			<path class="st0" d="M363.17,56.33c-1.12,0-2.09-0.96-2.09-2.08V3.13c0-1.12,0.96-2.09,2.09-2.09h3.21
				c1.12,0,2.09,0.96,2.09,2.09v46.78h16.77c1.12,0,2.09,0.96,2.09,2.09v2.25c0,1.12-0.96,2.08-2.09,2.08H363.17z"/>
		</g>
		<g>
			<path class="st0" d="M152.68,100.59c-0.11,0-0.19,0-0.24,0c-0.05,0-0.1-0.02-0.13-0.05c-1.63-0.28-2.56-1.18-2.81-2.7
				c-0.42-3.36-0.78-6.14-1.06-8.35c-0.28-2.21-0.54-4.2-0.77-5.96c-0.23-1.77-0.38-2.83-0.45-3.18c0-0.78,0.28-1.13,0.85-1.06
				c0.18,0,0.35,0.02,0.53,0.05c0.6,0.07,1.18,0.28,1.75,0.64c0.56,0.35,0.9,1.03,1.01,2.01l1.7,13.94c0,0.04,0.01,0.06,0.03,0.08
				c0.02,0.02,0.04,0.03,0.05,0.03c0.02,0,0.04,0,0.08,0c0.03,0,0.22-0.39,0.56-1.17c0.33-0.78,0.72-1.71,1.14-2.78
				c0.42-1.08,0.82-2.12,1.19-3.13c0.37-1.01,0.61-1.79,0.72-2.36l1.11-3.92c0-0.07,0.02-0.16,0.05-0.26
				c0.03-0.21,0.09-0.44,0.16-0.69c0.07-0.25,0.19-0.48,0.34-0.69s0.38-0.32,0.66-0.32h0.32c0.53,0,1,0.1,1.4,0.29
				c0.41,0.19,0.66,0.36,0.77,0.5c0.18,0.25,0.29,0.5,0.34,0.74c0.05,0.25,0.08,0.53,0.08,0.85c0.03,0.25,0.07,0.53,0.11,0.85
				c0.35,2.3,0.64,4.22,0.87,5.78c0.23,1.55,0.43,3,0.61,4.32c0.18,1.32,0.27,2.18,0.27,2.57v0.16l4.98-16.11
				c0.03-0.14,0.07-0.27,0.11-0.37c0.03-0.28,0.1-0.49,0.19-0.64c0.09-0.14,0.29-0.21,0.61-0.21c0.28,0,0.5,0.05,0.66,0.16
				c0.16,0.11,0.24,0.34,0.24,0.69c0,0.07-0.24,0.89-0.72,2.46s-1.03,3.35-1.67,5.33c-0.64,1.98-1.43,4.5-2.39,7.58
				c-0.74,2.19-1.22,3.52-1.43,3.97c-0.18,0.32-0.37,0.53-0.58,0.64c-0.21,0.11-0.51,0.16-0.9,0.16c-1.63-0.32-2.58-1.25-2.86-2.81
				l-1.48-11.45c-0.32,1.17-0.76,2.54-1.33,4.13c-0.57,1.59-1.1,3.02-1.62,4.29c-0.51,1.27-0.82,2.01-0.93,2.23
				c-0.39,1.02-0.65,1.8-0.79,2.33c-0.07,0.28-0.12,0.46-0.16,0.53C153.6,100.29,153.21,100.59,152.68,100.59z"/>
			<path class="st0" d="M180.67,100.12c-0.71,0-1.53-0.22-2.46-0.66c-0.94-0.44-1.86-1.28-2.78-2.52c-0.67-0.99-1.16-2.08-1.46-3.26
				c-0.3-1.18-0.45-2.34-0.45-3.47v-0.64c0.07-1.8,0.45-3.48,1.14-5.04s1.62-2.82,2.78-3.79c1.17-0.97,2.53-1.46,4.08-1.46h0.21
				c0.67,0,1.3,0.12,1.88,0.34s1.05,0.66,1.4,1.3c0.18,0.39,0.26,0.79,0.26,1.22v0.27c-0.07,1.03-0.74,2.11-2.01,3.26
				s-2.88,2.13-4.82,2.94c-0.21,1.06-0.32,2.14-0.32,3.23v0.48c0,1.41,0.2,2.7,0.61,3.87c0.41,1.17,0.94,2,1.62,2.49h0.16
				c0.46,0,1.02-0.45,1.67-1.35c0.65-0.9,1.19-1.86,1.62-2.89c0-0.04,0.02-0.07,0.05-0.11c0.07-0.21,0.16-0.36,0.26-0.45
				c0.11-0.09,0.32-0.13,0.64-0.13c0.14,0,0.25,0.05,0.32,0.16c0.07,0.11,0.14,0.25,0.21,0.42l-0.05,0.42
				c-0.07,0.14-0.14,0.28-0.21,0.42c-0.35,0.67-0.69,1.31-1.01,1.91c-0.32,0.6-0.76,1.27-1.32,2.01
				C182.15,99.71,181.48,100.05,180.67,100.12z M178.65,86.81c1.59-0.74,2.87-1.54,3.84-2.41c0.97-0.87,1.47-1.65,1.51-2.36
				c0-0.28-0.08-0.59-0.24-0.93c-0.16-0.33-0.43-0.54-0.82-0.61c-0.5,0.07-1.02,0.41-1.56,1.01c-0.55,0.6-0.96,1.13-1.25,1.59
				c-0.57,1.03-1.04,2.23-1.43,3.6C178.67,86.74,178.65,86.78,178.65,86.81z"/>
			<path class="st0" d="M205.95,70.01l-0.11,28.36c0,0.18,0,0.32,0,0.42c-0.04,0.32-0.05,0.56-0.05,0.74c0,0.18-0.04,0.32-0.11,0.42
				c-0.07,0.11-0.16,0.21-0.27,0.32c-0.14,0.25-0.41,0.37-0.79,0.37c-0.07,0-0.18-0.02-0.32-0.05c-0.14-0.04-0.3-0.07-0.48-0.11
				c-0.21-0.11-0.39-0.18-0.53-0.21c-0.21-0.07-0.38-0.14-0.5-0.21c-0.12-0.07-0.27-0.19-0.45-0.37c-0.53-0.42-0.79-0.9-0.79-1.43
				c0-0.35-0.02-0.69-0.05-1.01c-0.04-0.35-0.05-0.72-0.05-1.11l0.26-27.19c0-1.06,0.39-1.59,1.17-1.59c0.07,0,0.17,0.02,0.29,0.05
				c0.12,0.04,0.26,0.09,0.4,0.16c0.25,0.07,0.46,0.15,0.64,0.24c0.18,0.09,0.39,0.2,0.64,0.34
				C205.57,68.58,205.95,69.2,205.95,70.01z"/>
			<path class="st0" d="M217.82,100.27c-0.28,0-0.58-0.04-0.9-0.11c-2.19-0.57-3.69-1.68-4.5-3.34c-1.13-2.23-1.7-4.54-1.7-6.94
				c0-2.9,0.87-5.74,2.6-8.53c0.53-0.81,1.43-1.47,2.7-1.96c0.74-0.28,1.45-0.42,2.12-0.42c0.46,0,0.9,0.07,1.32,0.21
				c1.94,0.53,3.16,2.1,3.66,4.72c0.14,0.92,0.21,2.37,0.21,4.35c-0.25,4.2-1.45,7.88-3.6,11.02
				C219.27,99.94,218.63,100.27,217.82,100.27z M217.92,98.9c0.42,0,0.78-0.35,1.06-1.06c0.35-0.53,0.85-1.66,1.48-3.39
				c0.95-3.04,1.43-5.6,1.43-7.69c0-0.53-0.05-1.24-0.16-2.12c-0.11-1.27-0.32-2.17-0.64-2.7c-0.53-1.17-1.13-1.75-1.8-1.75
				c-0.5,0-1.08,0.35-1.75,1.06c-0.92,1.34-1.57,2.69-1.96,4.03c-0.35,1.06-0.53,2.72-0.53,4.98l0.05,1.86
				c0.11,3.21,0.9,5.44,2.38,6.68C217.64,98.86,217.78,98.9,217.92,98.9z"/>
			<path class="st0" d="M240.24,81.67v-0.11c-1.56,5.94-3.43,11.31-5.62,16.11l-0.32,0.74l-0.37,0.74
				c-0.28,0.53-0.69,0.79-1.22,0.79c-0.11,0-0.23-0.02-0.37-0.05c-1.66-0.32-2.62-1.25-2.86-2.81c-0.57-3.36-1.01-7.61-1.32-12.77
				c-0.25-2.3-0.48-3.75-0.69-4.35c-0.04-0.11-0.05-0.19-0.05-0.26c0-0.21,0.09-0.39,0.27-0.53c0.18-0.18,0.39-0.26,0.64-0.26
				c0.11,0,0.19,0.02,0.27,0.05c1.91,0.39,3,1.43,3.29,3.13c0.53,2.83,0.87,5.51,1.01,8.06l0.16,2.28l0.21,2.28l0.11,0.74
				c0.03,0.35,0.07,0.6,0.11,0.74c0.32-0.35,0.62-0.8,0.9-1.33c0.11-0.18,0.21-0.37,0.32-0.58l0.11-0.27l0.05-0.21
				c1.38-3.43,2.77-7.67,4.19-12.72l0.11-0.37l0.05-0.42c0.07-0.42,0.28-0.64,0.64-0.64c0.42,0.04,0.64,0.34,0.64,0.9
				C240.45,80.84,240.38,81.21,240.24,81.67z"/>
			<path class="st0" d="M251.1,100.12c-0.71,0-1.53-0.22-2.46-0.66c-0.94-0.44-1.86-1.28-2.78-2.52c-0.67-0.99-1.16-2.08-1.46-3.26
				c-0.3-1.18-0.45-2.34-0.45-3.47v-0.64c0.07-1.8,0.45-3.48,1.14-5.04s1.62-2.82,2.78-3.79c1.17-0.97,2.53-1.46,4.08-1.46h0.21
				c0.67,0,1.3,0.12,1.88,0.34s1.05,0.66,1.4,1.3c0.18,0.39,0.26,0.79,0.26,1.22v0.27c-0.07,1.03-0.74,2.11-2.01,3.26
				s-2.88,2.13-4.82,2.94c-0.21,1.06-0.32,2.14-0.32,3.23v0.48c0,1.41,0.2,2.7,0.61,3.87c0.41,1.17,0.94,2,1.62,2.49h0.16
				c0.46,0,1.02-0.45,1.67-1.35c0.65-0.9,1.19-1.86,1.62-2.89c0-0.04,0.02-0.07,0.05-0.11c0.07-0.21,0.16-0.36,0.26-0.45
				c0.11-0.09,0.32-0.13,0.64-0.13c0.14,0,0.25,0.05,0.32,0.16c0.07,0.11,0.14,0.25,0.21,0.42l-0.05,0.42
				c-0.07,0.14-0.14,0.28-0.21,0.42c-0.35,0.67-0.69,1.31-1.01,1.91c-0.32,0.6-0.76,1.27-1.32,2.01
				C252.58,99.71,251.91,100.05,251.1,100.12z M249.09,86.81c1.59-0.74,2.87-1.54,3.84-2.41c0.97-0.87,1.47-1.65,1.51-2.36
				c0-0.28-0.08-0.59-0.24-0.93c-0.16-0.33-0.43-0.54-0.82-0.61c-0.5,0.07-1.02,0.41-1.56,1.01c-0.55,0.6-0.96,1.13-1.25,1.59
				c-0.57,1.03-1.04,2.23-1.43,3.6C249.1,86.74,249.09,86.78,249.09,86.81z"/>
			<path class="st0" d="M276.38,70.01l-0.11,28.36c0,0.18,0,0.32,0,0.42c-0.04,0.32-0.05,0.56-0.05,0.74c0,0.18-0.04,0.32-0.11,0.42
				c-0.07,0.11-0.16,0.21-0.27,0.32c-0.14,0.25-0.41,0.37-0.79,0.37c-0.07,0-0.18-0.02-0.32-0.05c-0.14-0.04-0.3-0.07-0.48-0.11
				c-0.21-0.11-0.39-0.18-0.53-0.21c-0.21-0.07-0.38-0.14-0.5-0.21c-0.12-0.07-0.27-0.19-0.45-0.37c-0.53-0.42-0.79-0.9-0.79-1.43
				c0-0.35-0.02-0.69-0.05-1.01c-0.04-0.35-0.05-0.72-0.05-1.11l0.26-27.19c0-1.06,0.39-1.59,1.17-1.59c0.07,0,0.17,0.02,0.29,0.05
				c0.12,0.04,0.26,0.09,0.4,0.16c0.25,0.07,0.46,0.15,0.64,0.24c0.18,0.09,0.39,0.2,0.64,0.34
				C276.01,68.58,276.38,69.2,276.38,70.01z"/>
			<path class="st0" d="M288.25,100.27c-0.28,0-0.58-0.04-0.9-0.11c-2.19-0.57-3.69-1.68-4.5-3.34c-1.13-2.23-1.7-4.54-1.7-6.94
				c0-2.9,0.87-5.74,2.6-8.53c0.53-0.81,1.43-1.47,2.7-1.96c0.74-0.28,1.45-0.42,2.12-0.42c0.46,0,0.9,0.07,1.32,0.21
				c1.94,0.53,3.16,2.1,3.66,4.72c0.14,0.92,0.21,2.37,0.21,4.35c-0.25,4.2-1.45,7.88-3.6,11.02
				C289.7,99.94,289.06,100.27,288.25,100.27z M288.36,98.9c0.42,0,0.78-0.35,1.06-1.06c0.35-0.53,0.85-1.66,1.48-3.39
				c0.95-3.04,1.43-5.6,1.43-7.69c0-0.53-0.05-1.24-0.16-2.12c-0.11-1.27-0.32-2.17-0.64-2.7c-0.53-1.17-1.13-1.75-1.8-1.75
				c-0.5,0-1.08,0.35-1.75,1.06c-0.92,1.34-1.57,2.69-1.96,4.03c-0.35,1.06-0.53,2.72-0.53,4.98l0.05,1.86
				c0.11,3.21,0.9,5.44,2.38,6.68C288.07,98.86,288.22,98.9,288.36,98.9z"/>
			<path class="st0" d="M305.42,99.96c-0.14,0-0.29-0.01-0.45-0.03c-0.16-0.02-0.31-0.04-0.45-0.08c-2.23-0.5-3.78-1.54-4.66-3.13
				c-0.85-1.48-1.4-3.07-1.64-4.77c-0.18-0.71-0.27-1.4-0.27-2.07v-0.95c0-2.76,0.46-4.95,1.38-6.57c0.99-1.48,2-2.42,3.02-2.81
				c1.06-0.39,1.94-0.62,2.65-0.69c0.32,0,0.65,0.04,1.01,0.11c0.11,0.04,0.23,0.05,0.37,0.05c1.09,0.25,1.96,0.78,2.6,1.59
				c0.35,0.35,0.58,0.78,0.69,1.27c0,0.11,0.02,0.23,0.05,0.37c0.03,0.11,0.05,0.19,0.05,0.26c0,0.32-0.07,0.6-0.21,0.85
				c-0.04,0.07-0.08,0.13-0.13,0.19c-0.05,0.05-0.12,0.1-0.19,0.13c-0.04,0-0.07,0.02-0.11,0.05h-0.05c-0.11,0-0.19-0.01-0.24-0.03
				c-0.05-0.02-0.1-0.04-0.13-0.08c-0.04-0.04-0.06-0.07-0.08-0.11c-0.02-0.04-0.03-0.09-0.03-0.16c-0.04-0.07-0.05-0.12-0.05-0.16
				c-0.32-1.06-0.87-1.75-1.64-2.07c-0.42-0.21-0.81-0.32-1.17-0.32c-0.28,0-0.53,0.07-0.74,0.21c-0.5,0.25-0.9,0.85-1.22,1.8
				c-0.95,2.05-1.43,4.58-1.43,7.58v0.53c0,1.91,0.21,3.41,0.64,4.5c0.42,1.34,1.11,2.35,2.07,3.02c0.39,0,0.74-0.18,1.06-0.53
				c0.81-0.92,1.45-2.28,1.91-4.08c0.03-0.04,0.05-0.07,0.05-0.11c0.07-0.18,0.15-0.32,0.24-0.42c0.09-0.11,0.26-0.16,0.5-0.16h0.05
				c0.21,0.11,0.35,0.25,0.42,0.42l0.21,0.27c0,0.03,0,0.08,0,0.13c0,0.05-0.04,0.08-0.11,0.08c-0.39,1.7-1.08,3.3-2.07,4.82
				C306.91,99.6,306.27,99.96,305.42,99.96z"/>
			<path class="st0" d="M328.53,100.49c-0.6,0-1.21-0.21-1.83-0.64c-0.62-0.42-0.93-1.17-0.93-2.23l-0.11-11.45l-4.5,10.02
				c-0.42,0.85-0.81,1.48-1.17,1.91c-0.35,0.42-0.71,0.78-1.06,1.06c-0.53,0.46-1.1,0.69-1.7,0.69c-0.53,0-1.09-0.16-1.67-0.48
				s-1.05-0.81-1.4-1.48c-0.74-1.7-1.11-4.01-1.11-6.94c0-2.44,0.42-4.66,1.27-6.65c0.85-2,2.21-3.44,4.08-4.32
				c0.85-0.28,1.68-0.42,2.49-0.42c0.78,0,1.66,0.14,2.65,0.42c0.14,0,0.39,0.06,0.74,0.19c0.35,0.12,0.71,0.24,1.06,0.34
				c0.21,0.07,0.39,0.14,0.53,0.21l0.05-0.64c0-0.18,0.12-0.34,0.37-0.48c0.25-0.14,0.46-0.21,0.64-0.21
				c0.74,0.07,1.4,0.27,1.96,0.58c0.56,0.32,0.92,0.79,1.06,1.43l-0.16,18.02c0,0.28-0.08,0.5-0.24,0.66
				c-0.16,0.16-0.34,0.26-0.53,0.32C328.84,100.46,328.67,100.49,328.53,100.49z M318.46,97.84c0.07-0.04,0.16-0.12,0.27-0.24
				c0.11-0.12,0.22-0.27,0.34-0.42c0.12-0.16,0.27-0.36,0.45-0.61c0.11-0.14,0.36-0.6,0.77-1.38c0.41-0.78,0.87-1.7,1.4-2.76
				c0.53-1.06,1.02-2.08,1.48-3.07l1.43-3.23c0.18-0.42,0.34-0.78,0.48-1.06c0.35-0.67,0.53-1.24,0.53-1.7
				c0-1.38-0.92-2.12-2.76-2.23c-0.46,0-1.1,0.29-1.93,0.88c-0.83,0.58-1.56,1.46-2.2,2.62c-0.57,1.17-0.99,2.46-1.27,3.87
				c-0.28,1.41-0.42,2.7-0.42,3.87c0,0.95,0.06,1.97,0.19,3.05c0.12,1.08,0.31,1.79,0.56,2.15c0.21,0.18,0.35,0.26,0.42,0.26H318.46
				z"/>
			<path class="st0" d="M339.71,70.01l-0.11,28.36c0,0.18,0,0.32,0,0.42c-0.04,0.32-0.05,0.56-0.05,0.74c0,0.18-0.04,0.32-0.11,0.42
				c-0.07,0.11-0.16,0.21-0.27,0.32c-0.14,0.25-0.41,0.37-0.79,0.37c-0.07,0-0.18-0.02-0.32-0.05c-0.14-0.04-0.3-0.07-0.48-0.11
				c-0.21-0.11-0.39-0.18-0.53-0.21c-0.21-0.07-0.38-0.14-0.5-0.21c-0.12-0.07-0.27-0.19-0.45-0.37c-0.53-0.42-0.79-0.9-0.79-1.43
				c0-0.35-0.02-0.69-0.05-1.01c-0.04-0.35-0.05-0.72-0.05-1.11l0.26-27.19c0-1.06,0.39-1.59,1.17-1.59c0.07,0,0.17,0.02,0.29,0.05
				c0.12,0.04,0.26,0.09,0.4,0.16c0.25,0.07,0.46,0.15,0.64,0.24c0.18,0.09,0.39,0.2,0.64,0.34
				C339.34,68.58,339.71,69.2,339.71,70.01z"/>
		</g>
	</g>
</g>
</svg>
