<?xml version="1.0" encoding="UTF-8" standalone="no"?>
<!DOCTYPE svg PUBLIC "-//W3C//DTD SVG 1.1//EN" "http://www.w3.org/Graphics/SVG/1.1/DTD/svg11.dtd">
<svg width="100%" height="100%" viewBox="0 0 200 280" version="1.1" xmlns="http://www.w3.org/2000/svg" xmlns:xlink="http://www.w3.org/1999/xlink" xml:space="preserve" xmlns:serif="http://www.serif.com/" style="fill-rule:evenodd;clip-rule:evenodd;stroke-linecap:round;stroke-linejoin:round;stroke-miterlimit:2;">
    <g transform="matrix(1.70292,0,0,1.70292,-27.7193,-36.6053)">
        <path d="M68.748,136.992C47.465,133.952 31.083,115.633 31.083,93.518L31.083,82.018C31.083,79.257 33.321,77.018 36.083,77.018L38.587,77.018C41.348,77.018 43.587,79.257 43.587,82.018L43.587,92.446C43.587,109.783 57.663,123.859 75,123.859C92.337,123.859 106.413,109.783 106.413,92.446L106.413,82.018C106.413,79.257 108.652,77.018 111.413,77.018L113.917,77.018C116.679,77.018 118.917,79.257 118.917,82.018L118.917,93.518C118.917,115.633 102.535,133.952 81.252,136.992L81.252,170.272L91.513,170.28C93.871,170.282 95.784,172.199 95.782,174.557L95.778,178.515C95.776,180.874 93.86,182.787 91.502,182.785L81.252,182.776L81.252,182.788L68.748,182.788L68.748,182.765L58.487,182.757C56.129,182.755 54.216,180.839 54.218,178.481L54.222,174.522C54.224,172.164 56.14,170.251 58.498,170.253L68.748,170.261L68.748,136.992Z" style="fill:white;stroke:white;stroke-width:1.76px;"/>
    </g>
    <g transform="matrix(1.21117,0,0,1.49724,9.1622,-25.7705)">
        <path d="M101.17,43.382C101.17,28.938 89.444,17.212 75,17.212C60.556,17.212 48.83,28.938 48.83,43.382L48.83,91.474C48.83,105.917 60.556,117.644 75,117.644C89.444,117.644 101.17,105.917 101.17,91.474L101.17,43.382Z" style="fill:white;"/>
    </g>
</svg>
