<?xml version="1.0" encoding="UTF-8" standalone="no"?>
<!DOCTYPE svg PUBLIC "-//W3C//DTD SVG 1.1//EN" "http://www.w3.org/Graphics/SVG/1.1/DTD/svg11.dtd">
<svg width="100%" height="100%" viewBox="0 0 200 280" version="1.1" xmlns="http://www.w3.org/2000/svg" xmlns:xlink="http://www.w3.org/1999/xlink" xml:space="preserve" xmlns:serif="http://www.serif.com/" style="fill-rule:evenodd;clip-rule:evenodd;stroke-linecap:round;stroke-linejoin:round;stroke-miterlimit:2;">
    <g transform="matrix(1,0,0,1,20,0)">
        <path d="M57.28,169.259C64.176,172.503 71.878,174.317 80,174.317C109.524,174.317 133.494,150.347 133.494,120.823L133.494,103.065C133.494,98.363 137.307,94.551 142.009,94.551L146.273,94.551C150.976,94.551 154.787,98.363 154.787,103.065L154.787,122.649C154.787,160.309 126.89,191.505 90.647,196.682L90.647,253.355L108.12,253.369C112.136,253.372 115.394,256.637 115.39,260.652L115.383,267.392C115.38,271.409 112.117,274.667 108.102,274.664L90.647,274.648L90.647,274.669L69.353,274.669L69.353,274.63L51.88,274.616C47.864,274.613 44.606,271.35 44.61,267.334L44.617,260.592C44.62,256.577 47.883,253.319 51.898,253.323L69.353,253.336L69.353,196.682C58.854,195.182 49.054,191.499 40.434,186.108L57.28,169.259ZM111.549,114.979C110.006,134.827 96.46,150.371 80,150.371C78.788,150.371 77.591,150.286 76.413,150.122L111.549,114.979ZM7.563,141.308C6.028,135.34 5.213,129.089 5.213,122.649L5.213,103.065C5.213,98.363 9.024,94.551 13.727,94.551L17.991,94.551C22.693,94.551 26.506,98.363 26.506,103.065L26.506,120.823C26.506,121.331 26.513,121.837 26.527,122.34L7.563,141.308ZM48.304,100.559L48.304,39.183C48.304,17.557 62.506,0 80,0C96.955,0 110.818,16.492 111.656,37.195L48.304,100.559Z" style="fill:white;stroke:white;stroke-width:12px;"/>
    </g>
    <g transform="matrix(1.20166,-1.20115,0.963658,0.96407,-184.164,14.7513)">
        <path d="M154.787,189.866C154.787,186.965 152.898,184.61 150.57,184.61L9.43,184.61C7.102,184.61 5.213,186.965 5.213,189.866L5.213,200.38C5.213,203.281 7.102,205.636 9.43,205.636L150.57,205.636C152.898,205.636 154.787,203.281 154.787,200.38L154.787,189.866Z" style="fill:white;"/>
    </g>
</svg>
