<?xml version="1.0" encoding="UTF-8" standalone="no"?><!DOCTYPE svg PUBLIC "-//W3C//DTD SVG 1.1//EN" "http://www.w3.org/Graphics/SVG/1.1/DTD/svg11.dtd"><svg width="100%" height="100%" viewBox="0 0 134 167" version="1.1" xmlns="http://www.w3.org/2000/svg" xmlns:xlink="http://www.w3.org/1999/xlink" xml:space="preserve" xmlns:serif="http://www.serif.com/" style="fill-rule:evenodd;clip-rule:evenodd;stroke-linejoin:round;stroke-miterlimit:2;"><path d="M66.667,125c-0.904,0 -1.813,-0.267 -2.592,-0.808c-42.579,-29.475 -45.967,-58.163 -45.967,-92.604c0,-2.184 1.55,-4.063 3.696,-4.467c23.117,-4.417 42.021,-17.8 42.209,-17.938c1.583,-1.133 3.716,-1.133 5.3,0c0.187,0.134 19.091,13.521 42.208,17.938c2.146,0.408 3.696,2.283 3.696,4.467c0,34.441 -3.388,63.129 -45.967,92.604c-0.771,0.541 -1.679,0.808 -2.583,0.808Z" style="fill:#3b7bbf;"/><path d="M27.225,35.279c0.242,31.179 4.154,54.242 39.442,79.604c14.895,-10.706 24.2,-21.002 29.999,-31.672c7.937,-14.607 9.303,-29.914 9.442,-47.932c-18.462,-4.258 -33.541,-13.108 -39.441,-16.917c-5.904,3.809 -20.984,12.655 -39.442,16.917Z" style="fill:#3b7bbf;"/><path d="M61.471,85.217l-16.863,-16.55c-1.312,-1.292 -1.333,-3.4 -0.041,-4.717l3.5,-3.563c1.291,-1.312 3.4,-1.333 4.712,-0.045l10.996,10.787l23.662,-23.671c1.3,-1.304 3.413,-1.304 4.713,0l3.537,3.542c1.305,1.304 1.305,3.408 0,4.712l-29.483,29.484c-1.3,1.304 -3.421,1.312 -4.733,0.021Z" style="fill:#fff;fill-rule:nonzero;"/></svg>