<svg xmlns="http://www.w3.org/2000/svg" width="36" height="36" viewBox="0 0 36 36">
    <path fill="#ade2bc" d="M17 5c.49 0 .9.354.984.82L18 6v8c0 1.56-1.19 2.84-2.711 2.986L15 17h-1v14c0 .552-.448 1-1 1-.49 0-.9-.354-.984-.82L12 31V17h-1c-1.56 0-2.84-1.19-2.986-2.711L8 14V6c0-.552.448-1 1-1 .49 0 .9.354.984.82L10 6v8c0 .49.354.9.82.984L11 15h1V6c0-.552.448-1 1-1 .49 0 .9.354.984.82L14 6v9h1c.49 0 .9-.354.984-.82L16 14V6c0-.552.448-1 1-1zm9 0c.08 0 .16.01.234.028l.041.01.067.022.058.023.044.02.057.031.043.027.041.028.053.04.022.02c.049.043.093.09.133.141l.024.033.04.061.02.036c.011.02.022.04.031.06l.02.048c.008.017.014.035.02.053l.017.058c.006.02.011.041.015.062l.004.02.002.013.007.05L27 6v25c0 .552-.448 1-1 1-.49 0-.9-.354-.984-.82L25 31V17h-1c-1.56 0-2.84-1.19-2.986-2.711L21 14V8c0-1.56 1.19-2.84 2.711-2.986L24 5h2zm-1 10V7h-1c-.49 0-.9.354-.984.82L23 8v6c0 .49.354.9.82.984L24 15h1z"/>
</svg>
