<svg xmlns="http://www.w3.org/2000/svg" width="18" height="18" viewBox="0 0 18 18">
    <path fill="#636363" d="M9.307 1.5c-.187 0-.374.007-.559.02-.222.017-.459.211-.507.548l-.072.49c-.122.843-.7 1.469-1.343 1.814-.097.051-.191.107-.284.164-.621.386-1.453.574-2.244.258l-.46-.184c-.317-.126-.603-.02-.73.166-.209.307-.396.63-.56.968-.097.201-.046.501.22.712l.393.31c.667.526.922 1.338.898 2.068L4.057 9l.002.166c.024.73-.23 1.542-.898 2.068l-.392.31c-.267.21-.318.51-.22.712.163.338.35.661.56.968.126.185.412.292.728.166l.46-.184c.792-.316 1.624-.127 2.245.258.093.057.187.112.284.164.643.345 1.221.972 1.343 1.815l.072.49c.048.336.285.53.507.547.185.013.372.02.56.02.187 0 .373-.007.558-.02.223-.017.459-.211.508-.548l.07-.49c.123-.842.701-1.469 1.344-1.814.097-.052.191-.107.285-.164.62-.386 1.452-.574 2.243-.258l.46.184c.317.126.603.02.73-.166.21-.307.397-.63.56-.968.097-.201.047-.501-.22-.712l-.393-.31c-.667-.526-.921-1.338-.898-2.068L14.557 9l-.002-.166c-.023-.73.23-1.542.898-2.068l.393-.31c.267-.21.317-.51.22-.712-.163-.337-.35-.661-.56-.968-.127-.185-.413-.292-.73-.166l-.46.184c-.79.316-1.623.128-2.243-.258-.094-.057-.188-.112-.285-.164-.643-.345-1.22-.971-1.343-1.814l-.071-.49c-.05-.337-.285-.531-.508-.548-.185-.013-.371-.02-.559-.02zM8.64.025C8.859.008 9.082 0 9.307 0c.225 0 .448.008.668.025 1.04.076 1.75.912 1.883 1.827l.071.49c.038.258.231.527.569.708.124.067.246.138.366.213.325.201.654.234.897.138l.46-.184c.858-.342 1.937-.145 2.523.713.251.368.477.757.673 1.162.452.937.082 1.97-.643 2.542l-.391.31c-.205.16-.34.462-.329.844.002.07.003.14.003.212 0 .071 0 .142-.003.212-.012.382.124.684.329.845l.391.309c.725.571 1.095 1.605.643 2.542-.196.405-.422.794-.673 1.162-.586.858-1.665 1.055-2.522.713l-.461-.183c-.243-.097-.572-.064-.897.138-.12.075-.242.145-.366.212-.338.181-.531.45-.569.708l-.071.49c-.133.915-.844 1.752-1.883 1.827-.22.017-.443.025-.668.025-.225 0-.448-.008-.668-.025-1.038-.076-1.75-.913-1.883-1.828l-.07-.49c-.038-.257-.232-.526-.57-.707-.124-.067-.246-.137-.365-.212-.326-.202-.655-.235-.897-.138l-.462.183c-.857.342-1.935.145-2.522-.713-.251-.368-.477-.757-.672-1.162-.453-.937-.083-1.97.642-2.542l.392-.31c.204-.16.34-.462.328-.844-.002-.07-.003-.14-.003-.212 0-.071 0-.142.003-.212.012-.382-.124-.684-.328-.845l-.392-.309C1.115 7.063.745 6.03 1.198 5.092c.195-.405.42-.794.672-1.162.587-.858 1.665-1.055 2.522-.713l.462.183c.242.097.571.064.897-.137.119-.075.241-.146.366-.213.337-.181.53-.45.568-.708l.071-.49C6.89.938 7.601.1 8.64.026zm.668 6.725c-1.243 0-2.25 1.007-2.25 2.25s1.007 2.25 2.25 2.25 2.25-1.007 2.25-2.25-1.007-2.25-2.25-2.25zM5.557 9c0-2.07 1.679-3.75 3.75-3.75 2.07 0 3.75 1.68 3.75 3.75 0 2.07-1.68 3.75-3.75 3.75-2.071 0-3.75-1.68-3.75-3.75z"/>
</svg>
