<svg xmlns="http://www.w3.org/2000/svg" width="151" height="151" viewBox="0 0 151 151">
    <g fill="none" fill-rule="evenodd">
        <rect width="151" height="151" fill="#F4F4F4" rx="12"/>
        <text fill="#636363" font-family="Lato-Bold, Lato" font-size="13" font-weight="bold" letter-spacing="1.3">
            <tspan x="41" y="120">SPENDEN</tspan>
        </text>
        <g>
            <path fill="#636363" fill-rule="nonzero" d="M15.11 28.215c4.24-.676 9.067.017 13.645 3.136.395.27.785.555 1.168.858l.381.308c3.148 2.607 6.344 4.355 9.421 5.408 1.07.366 2.044.62 2.904.78l.348.062c.212.034.385.058.519.072l8.084.748c1.023.095 1.949.5 2.686 1.118l.19.169 9.822-8.876c1.58-1.426 3.921-1.583 5.673-.408l.192.136c1.987 1.483 2.44 4.257 1.066 6.288l-.134.188-12.64 16.847c-1.339 1.783-3.409 2.862-5.627 2.946L52.53 58H32.406c-1.553 0-3.085-.348-4.485-1.016l-.347-.173-10.3-5.401c-1.104-.579-2.322-.904-3.565-.954l-.34-.007H2.34c-1.238 0-2.251-.961-2.334-2.178L0 48.111V33.707c0-1.237.962-2.25 2.178-2.332l.16-.005h1.187c1.46 0 2.91-.23 4.296-.682l.46-.159 5.72-2.086.192-.05c.221-.053.53-.116.917-.178zm12.519 4.789c-3.978-2.71-8.165-3.377-11.859-2.865l-.345.051c-.194.031-.36.062-.493.088l-.315.067-5.65 2.063c-1.599.583-3.28.906-4.979.955l-.463.007H2.338c-.163 0-.3.116-.331.27L2 33.706v14.404c0 .163.116.3.27.331l.068.007H13.37c1.554 0 3.086.348 4.485 1.016l.347.174 10.301 5.4c1.104.579 2.321.904 3.564.954l.34.007H52.53c1.609 0 3.13-.72 4.148-1.952l.157-.2 12.64-16.846c.87-1.16.634-2.806-.529-3.673-.954-.712-2.26-.69-3.184.034l-.143.12-10.003 9.037.019.04c.217.518.348 1.08.374 1.667l.005.222c0 2.547-1.956 4.653-4.471 4.865l-.217.013-13.69.55c-1.349.054-2.686-.26-3.867-.907l-.27-.155-10.986-6.626c-.473-.285-.625-.9-.34-1.373.265-.439.813-.601 1.27-.394l.102.054 10.987 6.626c.828.499 1.772.767 2.735.78l.289-.004 13.69-.55c1.546-.061 2.768-1.332 2.768-2.88 0-1.429-1.045-2.632-2.442-2.848l-.176-.021-7.885-.73c-.897-.06-2.433-.347-4.434-1.032-3.3-1.13-6.709-2.994-10.048-5.76-.458-.378-.925-.73-1.4-1.053z" transform="translate(40 31)"/>
            <g transform="translate(40 31) translate(32)">
                <rect width="29" height="29" fill="#277F8E" rx="12"/>
                <path fill="#FFF" fill-rule="nonzero" d="M14.75 9c.414 0 .75.336.75.75V14h4.25c.38 0 .693.282.743.648l.007.102c0 .414-.336.75-.75.75h-4.251l.001 4.25c0 .38-.282.693-.648.743l-.102.007c-.414 0-.75-.336-.75-.75l-.001-4.25H9.75c-.38 0-.693-.282-.743-.648L9 14.75c0-.414.336-.75.75-.75H14V9.75c0-.38.282-.693.648-.743z"/>
            </g>
        </g>
    </g>
</svg>
