<svg xmlns="http://www.w3.org/2000/svg" width="18" height="18" viewBox="0 0 18 18">
    <path fill="#636363" d="M8.834 1.519c-2.936 0-5.315 2.376-5.315 5.315 0 2.149.957 4.237 2.143 5.976 1.152 1.7 2.473 3.007 3.172 3.645.699-.638 2.02-1.944 3.172-3.645 1.186-1.739 2.143-3.827 2.143-5.976 0-2.939-2.38-5.315-5.315-5.315zM2 6.834C2 3.06 5.06 0 8.834 0c3.775 0 6.834 3.06 6.834 6.834 0 2.582-1.14 4.966-2.406 6.834-1.272 1.868-2.723 3.288-3.456 3.956-.555.501-1.389.501-1.944 0-.733-.668-2.184-2.088-3.456-3.956C3.14 11.8 2 9.416 2 6.834zm6.834-1.519c-.838 0-1.519.684-1.519 1.519 0 .835.68 1.519 1.519 1.519.838 0 1.519-.684 1.519-1.519 0-.835-.68-1.519-1.519-1.519zM5.797 6.834c0-1.678 1.36-3.037 3.037-3.037 1.677 0 3.037 1.359 3.037 3.037s-1.36 3.037-3.037 3.037c-1.677 0-3.037-1.359-3.037-3.037z"/>
</svg>
