<svg xmlns="http://www.w3.org/2000/svg" width="18" height="18" viewBox="0 0 18 18">
    <g fill="none" fill-rule="evenodd">
        <circle cx="9" cy="9" r="8.25" stroke="#636363" stroke-width="1.5"/>
        <path fill="#636363" fill-rule="nonzero" d="M9.948 11.518c0-.336.03-.62.091-.854.06-.233.147-.436.259-.609.112-.173.243-.329.392-.469.15-.14.313-.285.49-.434.15-.13.299-.264.448-.399.15-.135.282-.29.399-.462.117-.173.21-.378.28-.616.07-.238.105-.52.105-.847 0-.448-.08-.85-.238-1.204-.159-.355-.376-.651-.651-.889s-.597-.42-.966-.546C10.188 4.063 9.789 4 9.36 4c-.513 0-.978.082-1.393.245-.415.163-.77.394-1.064.693-.294.299-.518.658-.672 1.078-.154.42-.231.887-.231 1.4h1.596c0-.635.138-1.141.413-1.519.275-.378.702-.567 1.281-.567.121 0 .261.028.42.084.159.056.308.145.448.266.14.121.259.282.357.483.098.2.147.441.147.721 0 .233-.03.434-.091.602-.06.168-.145.32-.252.455-.107.135-.229.259-.364.371-.135.112-.278.233-.427.364-.187.159-.348.32-.483.483-.135.163-.25.352-.343.567-.093.215-.161.464-.203.749-.042.285-.063.632-.063 1.043h1.512zm.154 2.716v-1.75H8.226v1.75h1.876z"/>
    </g>
</svg>
